{"glyphs":{"0":{"ha":861,"x_min":68,"x_max":792,"o":"m 792 486 q 765 272 792 365 q 690 114 738 178 q 576 17 642 50 q 431 -15 510 -15 q 285 17 351 -15 q 170 113 218 50 q 95 270 122 176 q 68 486 68 364 q 95 701 68 607 q 170 858 122 794 q 285 955 218 922 q 431 988 351 988 q 576 955 510 988 q 691 858 643 922 q 765 701 739 794 q 792 486 792 608 m 646 486 q 588 763 646 668 q 431 858 531 858 q 273 763 331 858 q 215 486 215 668 q 273 209 215 304 q 431 114 331 114 q 588 209 531 114 q 646 486 646 304 z "},"1":{"ha":861,"x_min":163,"x_max":726,"o":"m 163 0 l 163 124 l 381 124 l 381 747 l 185 747 l 185 844 q 339 877 285 850 q 408 972 393 904 l 528 972 l 528 124 l 726 124 l 726 0 l 163 0 z "},"2":{"ha":861,"x_min":72,"x_max":756,"o":"m 72 0 q 103 172 78 99 q 171 301 128 244 q 274 405 214 358 q 408 497 333 451 q 506 565 468 536 q 566 617 544 593 q 595 666 588 642 q 603 719 603 690 q 556 822 603 785 q 422 858 510 858 q 285 832 340 858 q 176 761 229 806 l 93 863 q 162 912 126 889 q 238 951 197 935 q 324 978 278 968 q 426 988 371 988 q 556 972 497 988 q 656 924 614 956 q 722 843 699 892 q 746 729 746 794 q 733 635 746 675 q 692 560 721 596 q 617 490 664 525 q 503 413 571 456 q 381 328 429 365 q 303 259 333 292 q 259 196 274 226 q 236 132 244 165 l 756 132 l 756 0 l 72 0 z "},"3":{"ha":861,"x_min":58,"x_max":758,"o":"m 758 285 q 662 62 758 139 q 394 -15 565 -15 q 202 23 286 -15 q 58 119 118 61 l 150 217 q 260 142 199 171 q 399 113 322 113 q 563 158 511 113 q 614 282 614 203 q 557 404 614 364 q 401 444 500 444 l 319 444 l 319 567 l 400 567 q 532 606 490 567 q 574 714 574 646 q 531 819 574 778 q 385 860 489 860 q 271 837 322 860 q 179 778 219 814 l 94 874 q 218 952 143 917 q 389 988 293 988 q 519 972 460 988 q 624 926 579 957 q 693 847 668 894 q 718 732 718 799 q 681 595 718 646 q 582 514 643 544 q 649 488 617 506 q 705 442 681 469 q 744 375 729 414 q 758 285 758 336 z "},"4":{"ha":861,"x_min":57,"x_max":801,"o":"m 681 218 l 681 0 l 549 0 l 549 219 l 57 219 l 57 332 l 532 972 l 681 972 l 681 340 l 801 340 l 801 218 l 681 218 m 549 679 q 549 703 549 686 q 549 740 549 721 q 550 777 550 760 q 550 800 550 794 q 497 720 531 768 q 428 625 463 672 l 331 494 q 268 413 301 456 q 211 340 235 369 l 313 340 l 549 340 l 549 679 z "},"5":{"ha":861,"x_min":83,"x_max":776,"o":"m 776 326 q 750 176 776 240 q 675 69 724 111 q 558 6 626 26 q 406 -15 489 -15 q 230 13 310 -15 q 83 89 150 40 l 158 197 q 278 135 213 158 q 414 113 343 113 q 580 169 526 113 q 633 321 633 225 q 583 457 633 408 q 435 506 533 506 q 328 489 371 506 q 247 444 285 472 l 113 490 l 144 972 l 721 972 l 721 842 l 268 842 l 249 575 q 334 615 285 599 q 453 631 383 631 q 694 549 613 631 q 776 326 776 468 z "},"6":{"ha":861,"x_min":78,"x_max":800,"o":"m 800 308 q 773 169 800 229 q 697 67 746 108 q 580 6 647 26 q 432 -15 513 -15 q 292 6 357 -15 q 180 75 228 28 q 105 194 132 122 q 78 369 78 267 q 107 572 78 467 q 203 767 136 678 q 382 917 271 856 q 657 988 493 978 l 664 864 q 370 756 479 847 q 221 508 261 665 q 328 579 267 551 q 483 607 389 607 q 608 589 550 607 q 708 534 665 571 q 776 441 751 497 q 800 308 800 385 m 657 299 q 601 435 657 388 q 443 483 544 483 q 281 434 339 483 q 222 299 222 385 q 238 222 222 257 q 281 163 253 188 q 349 124 308 138 q 439 110 389 110 q 601 161 544 110 q 657 299 657 213 z "},"7":{"ha":861,"x_min":74,"x_max":783,"o":"m 783 847 q 643 671 706 763 q 536 476 581 579 q 467 255 492 372 q 442 0 443 138 l 294 0 q 384 463 300 256 q 613 840 468 671 l 74 840 l 74 972 l 783 972 l 783 847 l 783 847 z "},"8":{"ha":861,"x_min":72,"x_max":789,"o":"m 789 281 q 763 153 789 208 q 690 61 738 99 q 576 4 643 24 q 428 -15 510 -15 q 168 60 264 -15 q 72 279 72 135 q 119 434 72 375 q 244 522 167 493 q 148 597 186 549 q 110 722 110 644 q 131 829 110 781 q 194 913 153 878 q 296 968 236 949 q 431 988 356 988 q 567 968 507 988 q 667 914 626 949 q 728 831 707 879 q 750 724 750 782 q 713 601 750 649 q 615 525 676 554 q 741 436 693 496 q 789 281 789 376 m 610 719 q 600 775 610 749 q 568 822 590 801 q 512 856 546 843 q 429 868 478 868 q 347 856 381 868 q 292 824 313 844 q 261 778 271 804 q 251 722 251 751 q 297 618 251 660 q 431 576 343 576 q 563 618 515 576 q 610 719 610 660 m 646 279 q 590 408 646 358 q 429 457 533 457 q 269 408 324 457 q 214 282 214 360 q 269 155 214 203 q 432 107 324 107 q 593 153 540 107 q 646 279 646 200 z "},"9":{"ha":861,"x_min":60,"x_max":782,"o":"m 782 603 q 753 400 782 506 q 656 206 724 294 q 478 56 589 117 q 204 -15 368 -6 l 197 108 q 491 216 382 125 q 640 464 600 307 q 533 392 594 419 q 378 365 472 365 q 253 383 311 365 q 151 438 194 401 q 84 531 108 475 q 60 664 60 588 q 88 803 60 743 q 164 905 115 864 q 281 967 213 946 q 429 988 349 988 q 569 966 504 988 q 681 897 633 944 q 755 777 728 850 q 782 603 782 704 m 639 674 q 624 750 639 715 q 581 810 608 785 q 513 849 553 835 q 422 863 472 863 q 260 811 317 863 q 204 674 204 760 q 260 537 204 585 q 418 489 317 489 q 581 538 522 489 q 639 674 639 588 z "}," ":{"ha":375,"x_min":0,"x_max":0,"o":""},"Ł":{"ha":847,"x_min":56,"x_max":778,"o":"m 147 0 l 147 325 l 56 253 l 56 413 l 147 485 l 147 972 l 290 972 l 290 585 l 485 744 l 485 585 l 290 425 l 290 143 l 778 143 l 778 0 l 147 0 z "},"ł":{"ha":396,"x_min":56,"x_max":340,"o":"m 268 433 l 268 0 l 128 0 l 128 331 l 56 276 l 56 436 l 128 492 l 128 939 l 268 1013 l 268 594 l 340 656 l 340 496 l 268 433 z "},"Š":{"ha":869,"x_min":72,"x_max":778,"o":"m 778 279 q 756 160 778 214 q 691 67 735 106 q 579 6 647 28 q 418 -15 511 -15 q 223 27 311 -15 q 72 142 135 69 l 176 243 q 292 159 225 190 q 429 128 360 128 q 631 269 631 128 q 619 319 631 297 q 582 360 608 342 q 514 396 556 379 q 411 431 472 413 q 276 476 333 453 q 182 531 219 500 q 126 607 144 563 q 107 717 107 651 q 132 830 107 779 q 200 915 157 881 q 302 969 243 950 q 428 988 361 988 q 604 953 528 988 q 746 856 681 918 l 643 751 q 543 822 597 799 q 417 844 489 844 q 292 808 331 844 q 254 724 254 772 q 264 678 254 699 q 297 641 274 658 q 363 607 321 624 q 467 572 404 590 q 597 526 539 550 q 694 469 654 503 q 756 390 735 436 q 778 279 778 344 m 506 1044 l 339 1044 l 176 1267 l 292 1267 l 424 1144 l 556 1267 l 668 1267 l 506 1044 z "},"š":{"ha":693,"x_min":63,"x_max":615,"o":"m 615 200 q 592 98 615 139 q 532 32 569 57 q 445 -4 494 7 q 342 -15 396 -15 q 192 11 267 -15 q 63 78 118 38 l 128 186 q 234 132 179 150 q 340 114 289 114 q 474 194 474 114 q 428 261 474 236 q 304 317 383 286 q 205 362 246 339 q 138 411 164 385 q 101 470 113 438 q 90 546 90 503 q 108 632 90 594 q 160 694 126 669 q 239 732 193 719 q 339 744 285 744 q 473 722 408 744 q 586 664 538 700 l 524 554 q 433 601 479 586 q 335 617 388 617 q 258 598 282 617 q 235 550 235 579 q 240 524 235 536 q 261 500 246 513 q 302 474 276 488 q 369 444 328 461 q 476 399 431 421 q 553 351 522 378 q 600 288 585 324 q 615 200 615 251 m 419 826 l 253 826 l 90 1049 l 206 1049 l 338 926 l 469 1049 l 582 1049 l 419 826 z "},"Ý":{"ha":957,"x_min":57,"x_max":900,"o":"m 551 385 l 551 0 l 406 0 l 406 385 l 57 972 l 228 972 l 379 704 q 406 654 392 682 q 435 599 421 626 q 461 549 450 572 q 479 511 472 525 q 497 548 485 525 q 522 597 508 571 q 551 651 536 624 q 579 703 567 679 l 732 972 l 900 972 l 551 385 m 508 1014 l 394 1014 l 543 1236 l 738 1236 l 508 1014 z "},"ý":{"ha":772,"x_min":46,"x_max":726,"o":"m 360 -257 l 208 -257 l 314 14 l 46 729 l 203 729 l 322 372 q 340 318 331 349 q 359 257 350 288 q 376 201 368 226 q 386 160 383 175 q 398 202 390 176 q 415 257 406 228 q 433 316 424 286 q 451 369 443 346 l 575 729 l 726 729 l 360 -257 m 414 814 l 300 814 l 449 1036 l 643 1036 l 414 814 z "},"Þ":{"ha":907,"x_min":126,"x_max":846,"o":"m 846 506 q 822 374 846 431 q 756 278 799 317 q 653 219 713 239 q 524 200 594 200 l 272 200 l 272 0 l 126 0 l 126 972 l 272 972 l 272 810 l 533 810 q 658 790 600 810 q 757 733 715 771 q 822 638 799 694 q 846 506 846 581 m 697 506 q 651 628 697 586 q 529 669 606 669 l 272 669 l 272 340 l 529 340 q 655 383 613 340 q 697 506 697 426 z "},"þ":{"ha":792,"x_min":106,"x_max":718,"o":"m 718 353 q 694 190 718 258 q 631 75 671 121 q 540 7 592 29 q 431 -15 488 -15 q 326 10 375 -15 q 247 68 278 35 l 247 -194 l 106 -268 l 106 939 l 247 1013 l 247 660 q 333 720 288 696 q 438 744 379 744 q 547 722 496 744 q 637 653 599 700 q 697 531 675 606 q 718 353 718 457 m 575 349 q 533 550 575 488 q 411 613 490 613 q 317 584 360 613 q 246 519 274 556 l 246 213 q 276 179 258 196 q 317 149 294 163 q 364 126 339 135 q 417 117 389 117 q 535 174 494 117 q 575 349 575 232 z "},"Ž":{"ha":922,"x_min":83,"x_max":822,"o":"m 83 0 l 83 142 l 558 715 q 585 747 569 729 q 615 783 600 765 q 644 815 631 800 q 668 840 658 831 q 628 840 653 840 q 576 838 604 839 q 521 838 549 838 q 472 838 493 838 l 111 838 l 111 972 l 822 972 l 822 831 l 353 257 q 326 225 342 243 q 296 190 311 207 q 267 157 281 172 q 243 132 253 142 q 282 133 257 132 q 335 134 307 133 q 390 135 363 135 q 439 135 418 135 l 822 135 l 822 0 l 83 0 m 540 1035 l 374 1035 l 211 1257 l 326 1257 l 458 1135 l 590 1257 l 703 1257 l 540 1035 z "},"ž":{"ha":732,"x_min":81,"x_max":643,"o":"m 81 0 l 81 117 l 393 499 q 440 557 415 526 q 481 604 465 588 q 454 604 471 604 q 419 604 438 604 q 382 604 400 604 q 350 604 364 604 l 108 604 l 108 729 l 643 729 l 643 614 l 338 232 q 290 173 315 204 q 250 125 265 142 q 277 125 260 125 q 313 125 294 125 q 351 125 332 125 q 383 125 369 125 l 643 125 l 643 0 l 81 0 m 454 826 l 288 826 l 125 1049 l 240 1049 l 372 926 l 504 1049 l 617 1049 l 454 826 z "},"½":{"ha":1056,"x_min":28,"x_max":1028,"o":"m 796 306 q 772 303 781 297 q 763 328 756 314 l 794 419 l 590 419 l 590 213 l 681 244 q 707 235 696 251 q 704 211 713 225 l 529 -21 l 354 211 q 350 235 346 226 q 363 245 357 242 q 378 244 368 249 l 468 213 l 468 419 l 261 419 l 293 328 q 283 303 300 314 q 260 306 275 297 l 28 481 l 260 656 q 283 660 276 665 q 294 647 290 653 q 293 632 297 642 l 261 542 l 468 542 l 468 760 l 378 728 q 363 727 368 724 q 350 738 357 731 q 354 761 344 744 l 529 993 l 704 761 q 707 738 713 746 q 681 728 696 721 l 590 760 l 590 542 l 794 542 l 763 632 q 762 647 758 642 q 772 660 765 653 q 796 656 779 665 l 1028 481 l 796 306 z "},"¼":{"ha":1056,"x_min":28,"x_max":1028,"o":"m 796 306 q 772 303 781 297 q 763 328 756 314 l 794 419 l 590 419 l 590 213 l 681 244 q 707 235 696 251 q 704 211 713 225 l 529 -21 l 354 211 q 350 235 346 226 q 363 245 357 242 q 378 244 368 249 l 468 213 l 468 419 l 261 419 l 293 328 q 283 303 300 314 q 260 306 275 297 l 28 481 l 260 656 q 283 660 276 665 q 294 647 290 653 q 293 632 297 642 l 261 542 l 468 542 l 468 760 l 378 728 q 363 727 368 724 q 350 738 357 731 q 354 761 344 744 l 529 993 l 704 761 q 707 738 713 746 q 681 728 696 721 l 590 760 l 590 542 l 794 542 l 763 632 q 762 647 758 642 q 772 660 765 653 q 796 656 779 665 l 1028 481 l 796 306 z "},"¹":{"ha":1056,"x_min":28,"x_max":1028,"o":"m 796 306 q 772 303 781 297 q 763 328 756 314 l 794 419 l 590 419 l 590 213 l 681 244 q 707 235 696 251 q 704 211 713 225 l 529 -21 l 354 211 q 350 235 346 226 q 363 245 357 242 q 378 244 368 249 l 468 213 l 468 419 l 261 419 l 293 328 q 283 303 300 314 q 260 306 275 297 l 28 481 l 260 656 q 283 660 276 665 q 294 647 290 653 q 293 632 297 642 l 261 542 l 468 542 l 468 760 l 378 728 q 363 727 368 724 q 350 738 357 731 q 354 761 344 744 l 529 993 l 704 761 q 707 738 713 746 q 681 728 696 721 l 590 760 l 590 542 l 794 542 l 763 632 q 762 647 758 642 q 772 660 765 653 q 796 656 779 665 l 1028 481 l 796 306 z "},"¾":{"ha":1056,"x_min":28,"x_max":1028,"o":"m 796 306 q 772 303 781 297 q 763 328 756 314 l 794 419 l 590 419 l 590 213 l 681 244 q 707 235 696 251 q 704 211 713 225 l 529 -21 l 354 211 q 350 235 346 226 q 363 245 357 242 q 378 244 368 249 l 468 213 l 468 419 l 261 419 l 293 328 q 283 303 300 314 q 260 306 275 297 l 28 481 l 260 656 q 283 660 276 665 q 294 647 290 653 q 293 632 297 642 l 261 542 l 468 542 l 468 760 l 378 728 q 363 727 368 724 q 350 738 357 731 q 354 761 344 744 l 529 993 l 704 761 q 707 738 713 746 q 681 728 696 721 l 590 760 l 590 542 l 794 542 l 763 632 q 762 647 758 642 q 772 660 765 653 q 796 656 779 665 l 1028 481 l 796 306 z "},"³":{"ha":1056,"x_min":28,"x_max":1028,"o":"m 796 306 q 772 303 781 297 q 763 328 756 314 l 794 419 l 590 419 l 590 213 l 681 244 q 707 235 696 251 q 704 211 713 225 l 529 -21 l 354 211 q 350 235 346 226 q 363 245 357 242 q 378 244 368 249 l 468 213 l 468 419 l 261 419 l 293 328 q 283 303 300 314 q 260 306 275 297 l 28 481 l 260 656 q 283 660 276 665 q 294 647 290 653 q 293 632 297 642 l 261 542 l 468 542 l 468 760 l 378 728 q 363 727 368 724 q 350 738 357 731 q 354 761 344 744 l 529 993 l 704 761 q 707 738 713 746 q 681 728 696 721 l 590 760 l 590 542 l 794 542 l 763 632 q 762 647 758 642 q 772 660 765 653 q 796 656 779 665 l 1028 481 l 796 306 z "},"²":{"ha":1056,"x_min":28,"x_max":1028,"o":"m 796 306 q 772 303 781 297 q 763 328 756 314 l 794 419 l 590 419 l 590 213 l 681 244 q 707 235 696 251 q 704 211 713 225 l 529 -21 l 354 211 q 350 235 346 226 q 363 245 357 242 q 378 244 368 249 l 468 213 l 468 419 l 261 419 l 293 328 q 283 303 300 314 q 260 306 275 297 l 28 481 l 260 656 q 283 660 276 665 q 294 647 290 653 q 293 632 297 642 l 261 542 l 468 542 l 468 760 l 378 728 q 363 727 368 724 q 350 738 357 731 q 354 761 344 744 l 529 993 l 704 761 q 707 738 713 746 q 681 728 696 721 l 590 760 l 590 542 l 794 542 l 763 632 q 762 647 758 642 q 772 660 765 653 q 796 656 779 665 l 1028 481 l 796 306 z "},"¦":{"ha":1056,"x_min":28,"x_max":1028,"o":"m 796 306 q 772 303 781 297 q 763 328 756 314 l 794 419 l 590 419 l 590 213 l 681 244 q 707 235 696 251 q 704 211 713 225 l 529 -21 l 354 211 q 350 235 346 226 q 363 245 357 242 q 378 244 368 249 l 468 213 l 468 419 l 261 419 l 293 328 q 283 303 300 314 q 260 306 275 297 l 28 481 l 260 656 q 283 660 276 665 q 294 647 290 653 q 293 632 297 642 l 261 542 l 468 542 l 468 760 l 378 728 q 363 727 368 724 q 350 738 357 731 q 354 761 344 744 l 529 993 l 704 761 q 707 738 713 746 q 681 728 696 721 l 590 760 l 590 542 l 794 542 l 763 632 q 762 647 758 642 q 772 660 765 653 q 796 656 779 665 l 1028 481 l 796 306 z "},"−":{"ha":1056,"x_min":28,"x_max":1028,"o":"m 796 306 q 772 303 781 297 q 763 328 756 314 l 794 419 l 590 419 l 590 213 l 681 244 q 707 235 696 251 q 704 211 713 225 l 529 -21 l 354 211 q 350 235 346 226 q 363 245 357 242 q 378 244 368 249 l 468 213 l 468 419 l 261 419 l 293 328 q 283 303 300 314 q 260 306 275 297 l 28 481 l 260 656 q 283 660 276 665 q 294 647 290 653 q 293 632 297 642 l 261 542 l 468 542 l 468 760 l 378 728 q 363 727 368 724 q 350 738 357 731 q 354 761 344 744 l 529 993 l 704 761 q 707 738 713 746 q 681 728 696 721 l 590 760 l 590 542 l 794 542 l 763 632 q 762 647 758 642 q 772 660 765 653 q 796 656 779 665 l 1028 481 l 796 306 z "},"×":{"ha":1056,"x_min":28,"x_max":1028,"o":"m 796 306 q 772 303 781 297 q 763 328 756 314 l 794 419 l 590 419 l 590 213 l 681 244 q 707 235 696 251 q 704 211 713 225 l 529 -21 l 354 211 q 350 235 346 226 q 363 245 357 242 q 378 244 368 249 l 468 213 l 468 419 l 261 419 l 293 328 q 283 303 300 314 q 260 306 275 297 l 28 481 l 260 656 q 283 660 276 665 q 294 647 290 653 q 293 632 297 642 l 261 542 l 468 542 l 468 760 l 378 728 q 363 727 368 724 q 350 738 357 731 q 354 761 344 744 l 529 993 l 704 761 q 707 738 713 746 q 681 728 696 721 l 590 760 l 590 542 l 794 542 l 763 632 q 762 647 758 642 q 772 660 765 653 q 796 656 779 665 l 1028 481 l 796 306 z "},"ð":{"ha":792,"x_min":71,"x_max":721,"o":"m 721 404 q 696 212 721 292 q 626 82 671 132 q 522 8 582 32 q 392 -15 463 -15 q 264 8 322 -15 q 163 77 206 32 q 95 186 119 122 q 71 331 71 250 q 95 476 71 414 q 160 581 119 539 q 254 643 200 622 q 367 664 308 664 q 486 642 429 664 q 581 572 543 619 q 535 690 565 635 q 457 785 506 744 l 388 713 l 306 785 l 360 842 q 242 869 308 865 l 242 988 q 353 971 301 985 q 447 933 404 957 l 499 988 l 581 915 l 539 871 q 622 773 588 828 q 678 657 657 718 q 710 531 700 596 q 721 404 721 467 m 576 331 q 524 489 576 436 q 390 542 471 542 q 266 489 317 542 q 215 335 215 436 q 265 178 215 235 q 397 121 315 121 q 471 137 438 121 q 528 181 504 153 q 564 247 551 208 q 576 331 576 286 z "},"!":{"ha":414,"x_min":103,"x_max":311,"o":"m 253 281 l 161 281 l 133 540 l 133 972 l 281 972 l 281 540 l 253 281 m 311 89 q 281 15 311 46 q 207 -15 250 -15 q 133 15 164 -15 q 103 89 103 46 q 133 163 103 132 q 207 194 164 194 q 281 163 250 194 q 311 89 311 132 z "},"\"":{"ha":681,"x_min":100,"x_max":581,"o":"m 546 518 l 442 518 l 407 972 l 581 972 l 546 518 m 239 518 l 135 518 l 100 972 l 274 972 l 239 518 z "},"#":{"ha":861,"x_min":64,"x_max":797,"o":"m 658 231 l 658 0 l 531 0 l 531 231 l 331 231 l 331 0 l 203 0 l 203 231 l 64 231 l 64 344 l 203 344 l 203 628 l 64 628 l 64 742 l 203 742 l 203 972 l 331 972 l 331 742 l 531 742 l 531 972 l 658 972 l 658 742 l 797 742 l 797 628 l 658 628 l 658 344 l 797 344 l 797 231 l 658 231 m 533 629 l 328 629 l 328 343 l 533 343 l 533 629 z "},"$":{"ha":861,"x_min":71,"x_max":772,"o":"m 772 275 q 699 91 772 163 q 497 4 626 19 l 497 -137 l 354 -137 l 354 4 q 197 47 271 14 q 71 124 124 79 l 156 236 q 285 158 215 189 q 428 128 354 128 q 572 163 521 128 q 624 267 624 199 q 613 318 624 296 q 577 359 603 340 q 508 395 551 378 q 401 432 465 413 q 260 484 318 458 q 166 542 203 510 q 113 617 129 575 q 97 715 97 658 q 167 888 97 824 q 354 968 236 953 l 354 1110 l 499 1110 l 499 969 q 635 938 576 963 q 751 872 694 913 l 668 757 q 550 822 607 800 q 419 844 493 844 q 286 810 325 844 q 247 725 247 775 q 256 678 247 699 q 288 640 264 658 q 354 604 311 622 q 467 565 397 586 q 611 512 553 539 q 706 451 669 485 q 757 376 742 418 q 772 275 772 333 z "},"&":{"ha":944,"x_min":81,"x_max":903,"o":"m 736 0 l 660 90 q 538 13 606 42 q 386 -15 469 -15 q 156 58 231 -15 q 81 249 81 131 q 132 413 81 347 q 285 536 183 479 l 267 558 q 197 663 218 617 q 175 764 175 710 q 247 928 175 869 q 444 988 319 988 q 577 964 513 988 q 706 896 642 940 l 638 779 q 535 836 581 819 q 432 853 489 853 q 348 830 375 853 q 321 767 321 807 q 331 712 321 736 q 371 650 340 688 l 656 301 q 694 381 678 339 q 722 463 711 422 l 854 425 q 813 305 839 365 q 749 190 786 244 l 903 0 l 736 0 m 368 438 q 263 357 299 399 q 226 256 226 315 q 267 158 226 197 q 392 118 307 118 q 492 138 446 118 q 574 193 538 158 l 368 438 z "},"'":{"ha":374,"x_min":96,"x_max":278,"o":"m 243 518 l 131 518 l 96 972 l 278 972 l 243 518 z "},"(":{"ha":431,"x_min":88,"x_max":397,"o":"m 322 -153 q 231 -35 274 -97 q 156 97 188 26 q 106 247 124 167 q 88 418 88 326 q 106 594 88 513 q 156 746 124 675 q 231 878 188 817 q 322 996 274 940 l 397 942 q 269 709 314 836 q 225 424 225 582 q 269 133 225 261 q 397 -100 314 6 l 322 -153 z "},")":{"ha":431,"x_min":33,"x_max":343,"o":"m 343 425 q 325 249 343 331 q 275 97 307 168 q 200 -35 243 26 q 108 -153 157 -97 l 33 -100 q 162 133 117 6 q 207 418 207 261 q 162 708 207 581 q 33 942 117 836 l 108 996 q 200 878 157 940 q 275 745 243 815 q 325 595 307 675 q 343 425 343 515 z "},"*":{"ha":694,"x_min":72,"x_max":622,"o":"m 560 500 l 388 624 l 410 411 l 288 411 l 308 625 l 135 500 l 72 606 l 267 693 l 74 781 l 136 886 l 308 760 l 288 972 l 410 972 l 388 763 l 558 886 l 621 781 l 424 693 l 622 606 l 560 500 z "},"+":{"ha":861,"x_min":90,"x_max":771,"o":"m 501 411 l 501 129 l 360 129 l 360 411 l 90 411 l 90 544 l 360 544 l 360 826 l 501 826 l 501 544 l 771 544 l 771 411 l 501 411 z "},",":{"ha":431,"x_min":115,"x_max":319,"o":"m 217 -167 l 115 -167 l 136 196 l 319 196 l 217 -167 z "},"-":{"ha":861,"x_min":108,"x_max":753,"o":"m 108 410 l 108 546 l 753 546 l 753 410 l 108 410 z "},".":{"ha":431,"x_min":106,"x_max":325,"o":"m 325 94 q 293 17 325 49 q 215 -15 261 -15 q 138 17 169 -15 q 106 94 106 49 q 138 173 106 140 q 215 206 169 206 q 293 173 261 206 q 325 94 325 140 z "},"/":{"ha":861,"x_min":-15,"x_max":876,"o":"m 144 0 l -15 0 l 717 972 l 876 972 l 144 0 z "},":":{"ha":431,"x_min":107,"x_max":324,"o":"m 324 635 q 292 558 324 589 q 215 526 260 526 q 138 558 169 526 q 107 635 107 589 q 138 713 107 681 q 215 744 169 744 q 292 713 260 744 q 324 635 324 681 m 324 93 q 292 16 324 47 q 215 -15 260 -15 q 138 16 169 -15 q 107 93 107 47 q 138 171 107 139 q 215 203 169 203 q 292 171 260 203 q 324 93 324 139 z "},";":{"ha":431,"x_min":104,"x_max":324,"o":"m 324 635 q 292 558 324 589 q 215 526 260 526 q 138 558 169 526 q 107 635 107 589 q 138 713 107 681 q 215 744 169 744 q 292 713 260 744 q 324 635 324 681 m 204 -165 l 104 -165 l 125 194 l 306 194 l 204 -165 z "},"<":{"ha":861,"x_min":113,"x_max":751,"o":"m 113 414 l 113 547 l 751 936 l 751 779 l 253 482 l 751 185 l 751 24 l 113 414 z "},"=":{"ha":861,"x_min":111,"x_max":750,"o":"m 111 569 l 111 706 l 750 706 l 750 569 l 111 569 m 111 250 l 111 386 l 750 386 l 750 250 l 111 250 z "},">":{"ha":861,"x_min":110,"x_max":749,"o":"m 110 24 l 110 182 l 608 478 l 110 775 l 110 936 l 749 547 l 749 414 l 110 24 z "},"?":{"ha":793,"x_min":47,"x_max":718,"o":"m 718 729 q 706 641 718 679 q 672 573 694 603 q 616 519 650 543 q 539 469 582 494 q 485 433 506 450 q 453 396 464 417 q 438 347 442 375 q 435 281 435 319 l 283 281 q 290 385 283 342 q 317 461 297 428 q 373 523 338 494 q 467 583 408 551 q 544 642 519 613 q 569 721 569 671 q 521 811 569 779 q 382 843 472 843 q 249 814 304 843 q 140 735 193 785 l 47 844 q 192 946 107 904 q 386 988 278 988 q 521 971 460 988 q 626 922 582 954 q 694 841 669 889 q 718 729 718 793 m 463 89 q 432 15 463 46 q 358 -15 401 -15 q 285 15 315 -15 q 254 89 254 46 q 285 163 254 132 q 358 194 315 194 q 432 163 401 194 q 463 89 463 132 z "},"@":{"ha":1161,"x_min":79,"x_max":1082,"o":"m 1082 500 q 1066 367 1082 421 q 1022 278 1050 313 q 956 229 994 244 q 871 214 917 214 q 779 238 817 214 q 722 300 742 263 q 690 268 710 283 q 646 240 669 253 q 596 221 622 228 q 544 214 569 214 q 466 226 504 214 q 399 261 428 238 q 351 320 369 285 q 333 404 333 356 q 351 482 333 449 q 400 537 369 515 q 472 569 431 558 q 557 581 513 581 q 635 569 599 581 q 694 544 671 558 l 694 615 q 661 678 694 660 q 565 697 628 697 q 494 690 526 697 q 431 664 461 683 l 392 732 q 476 767 431 756 q 571 779 522 779 q 728 738 669 779 q 788 613 788 697 l 788 379 q 809 319 788 342 q 879 296 831 296 q 973 349 944 296 q 1001 501 1001 401 q 969 658 1001 585 q 881 788 938 732 q 748 876 825 843 q 581 908 671 908 q 412 876 489 908 q 278 788 335 844 q 191 655 222 732 q 160 488 160 578 q 191 319 160 396 q 278 185 222 242 q 412 97 335 129 q 581 65 489 65 q 671 74 628 65 q 761 106 714 82 l 794 32 q 688 -6 735 4 q 581 -15 640 -15 q 380 22 472 -15 q 221 126 288 60 q 117 285 154 193 q 79 486 79 378 q 117 687 79 594 q 221 846 154 779 q 380 950 288 913 q 581 988 472 988 q 784 949 692 988 q 942 843 876 910 q 1045 688 1008 776 q 1082 500 1082 599 m 694 460 q 636 488 674 475 q 551 501 599 501 q 458 477 492 501 q 424 407 424 453 q 458 327 424 357 q 558 297 492 297 q 636 319 597 297 q 694 375 675 340 l 694 460 z "},"A":{"ha":989,"x_min":65,"x_max":924,"o":"m 768 0 l 686 231 l 297 231 l 217 0 l 65 0 l 415 972 l 569 972 l 924 0 l 768 0 m 564 585 q 544 643 556 611 q 523 707 533 675 q 503 766 513 739 q 490 808 494 793 q 478 766 486 793 q 460 708 469 739 q 440 643 450 676 q 419 583 429 610 l 342 361 l 642 361 l 564 585 z "},"B":{"ha":938,"x_min":126,"x_max":846,"o":"m 846 299 q 759 75 846 150 q 513 0 672 0 l 126 0 l 126 972 l 526 972 q 730 908 654 972 q 806 719 806 843 q 770 598 806 644 q 682 525 735 551 q 740 499 711 517 q 793 454 769 482 q 831 388 817 426 q 846 299 846 349 m 660 711 q 629 802 660 765 q 525 839 599 839 l 264 839 l 264 588 l 525 588 q 587 598 561 588 q 628 626 613 608 q 652 665 644 643 q 660 711 660 688 m 700 294 q 656 413 700 369 q 528 456 611 456 l 264 456 l 264 133 l 524 133 q 660 178 621 133 q 700 294 700 222 z "},"C":{"ha":910,"x_min":81,"x_max":826,"o":"m 826 171 q 688 33 774 81 q 492 -15 603 -15 q 322 22 397 -15 q 192 125 246 58 q 110 283 139 192 q 81 486 81 375 q 110 688 81 596 q 192 847 139 781 q 322 951 246 914 q 492 988 397 988 q 692 941 611 988 q 822 806 772 894 l 693 725 q 611 813 656 785 q 492 842 567 842 q 297 746 364 842 q 231 486 231 650 q 297 226 231 322 q 492 131 364 131 q 618 161 568 131 q 706 251 668 192 l 826 171 l 826 171 z "},"D":{"ha":943,"x_min":126,"x_max":865,"o":"m 865 486 q 827 265 865 357 q 724 115 789 174 q 573 28 658 56 q 392 0 488 0 l 126 0 l 126 972 l 392 972 q 576 944 489 972 q 726 858 663 917 q 828 707 790 799 q 865 486 865 615 m 717 486 q 699 626 717 563 q 641 735 681 689 q 540 806 601 781 q 392 831 478 831 l 272 831 l 272 142 l 392 142 q 540 167 478 142 q 641 238 601 192 q 699 347 681 283 q 717 486 717 410 z "},"E":{"ha":854,"x_min":126,"x_max":774,"o":"m 126 0 l 126 972 l 753 972 l 753 831 l 272 831 l 272 590 l 551 590 l 551 449 l 272 449 l 272 142 l 774 142 l 774 0 l 126 0 z "},"F":{"ha":808,"x_min":126,"x_max":753,"o":"m 272 829 l 272 575 l 551 575 l 551 432 l 272 432 l 272 0 l 126 0 l 126 972 l 753 972 l 753 829 l 272 829 z "},"G":{"ha":942,"x_min":81,"x_max":861,"o":"m 861 381 q 834 213 861 286 q 758 89 807 140 q 640 11 708 38 q 492 -15 572 -15 q 322 22 397 -15 q 192 125 246 58 q 110 283 139 192 q 81 486 81 375 q 110 688 81 596 q 192 847 139 781 q 322 951 246 914 q 492 988 397 988 q 692 941 611 988 q 822 806 772 894 l 694 726 q 612 814 657 786 q 492 842 567 842 q 297 746 364 842 q 229 486 229 650 q 297 226 229 322 q 492 131 364 131 q 593 149 551 131 q 661 197 635 167 q 700 266 688 226 q 713 349 713 306 l 713 353 l 554 353 l 554 493 l 861 493 l 861 381 l 861 381 z "},"H":{"ha":992,"x_min":126,"x_max":865,"o":"m 719 0 l 719 436 l 272 436 l 272 0 l 126 0 l 126 972 l 272 972 l 272 579 l 719 579 l 719 972 l 865 972 l 865 0 l 719 0 z "},"I":{"ha":413,"x_min":133,"x_max":279,"o":"m 133 0 l 133 972 l 279 972 l 279 0 l 133 0 z "},"J":{"ha":838,"x_min":33,"x_max":718,"o":"m 718 383 q 634 85 718 186 q 372 -15 550 -15 q 152 53 235 -15 q 33 243 69 121 l 175 285 q 250 170 203 210 q 376 131 297 131 q 527 193 482 131 q 572 394 572 256 l 572 972 l 718 972 l 718 383 l 718 383 z "},"K":{"ha":951,"x_min":126,"x_max":893,"o":"m 728 0 l 449 499 l 268 281 l 268 0 l 126 0 l 126 972 l 268 972 l 268 639 q 268 601 268 625 q 267 551 268 576 q 266 501 267 525 q 265 467 265 478 q 285 494 271 476 q 315 534 299 513 q 349 576 332 556 q 378 613 365 597 l 665 972 l 831 972 l 546 619 l 893 0 l 728 0 z "},"L":{"ha":826,"x_min":126,"x_max":757,"o":"m 126 0 l 126 972 l 272 972 l 272 143 l 757 143 l 757 0 l 126 0 z "},"M":{"ha":1122,"x_min":126,"x_max":996,"o":"m 853 0 l 853 514 q 853 561 853 536 q 853 610 853 586 q 855 654 854 635 q 856 685 856 674 q 829 619 847 664 q 793 532 811 574 l 557 -15 l 324 532 q 288 619 306 574 q 261 685 269 664 q 262 654 261 674 q 263 610 263 635 q 264 561 264 586 q 264 514 264 536 l 264 0 l 126 0 l 126 972 l 276 972 l 494 454 q 532 365 513 413 q 561 288 551 318 q 590 365 572 318 q 626 454 608 411 l 840 972 l 996 972 l 996 0 l 853 0 z "},"N":{"ha":992,"x_min":126,"x_max":865,"o":"m 726 0 l 339 610 q 299 674 321 638 q 267 729 278 710 q 267 686 267 715 q 267 624 267 657 q 268 558 268 590 q 268 504 268 525 l 268 0 l 126 0 l 126 972 l 275 972 l 644 379 q 666 344 654 364 q 689 305 678 325 q 710 268 700 285 q 725 242 719 251 q 725 285 725 256 q 724 349 725 315 q 724 417 724 383 q 724 471 724 450 l 724 972 l 865 972 l 865 0 l 726 0 z "},"O":{"ha":985,"x_min":81,"x_max":904,"o":"m 904 486 q 875 283 904 375 q 792 125 846 192 q 663 22 739 58 q 492 -15 586 -15 q 322 22 397 -15 q 192 125 246 58 q 110 283 139 192 q 81 486 81 375 q 110 688 81 596 q 192 847 139 781 q 322 951 246 914 q 492 988 397 988 q 663 951 586 988 q 792 847 739 914 q 875 688 846 781 q 904 486 904 596 m 756 486 q 688 746 756 650 q 492 842 621 842 q 297 746 364 842 q 229 486 229 650 q 297 226 229 322 q 492 131 364 131 q 688 226 621 131 q 756 486 756 322 z "},"P":{"ha":907,"x_min":126,"x_max":846,"o":"m 846 668 q 822 536 846 593 q 756 440 799 479 q 653 382 713 401 q 524 363 594 363 l 269 363 l 269 0 l 126 0 l 126 972 l 533 972 q 658 953 600 972 q 757 895 715 933 q 822 800 799 857 q 846 668 846 743 m 697 668 q 652 792 697 749 q 531 835 607 835 l 269 835 l 269 500 l 531 500 q 656 544 614 500 q 697 668 697 589 z "},"Q":{"ha":985,"x_min":81,"x_max":904,"o":"m 904 486 q 865 256 904 357 q 754 88 825 154 l 819 -14 l 700 -89 l 635 11 q 492 -15 567 -15 q 322 22 397 -15 q 192 125 246 58 q 110 283 139 192 q 81 486 81 375 q 110 688 81 596 q 192 847 139 781 q 322 951 246 914 q 492 988 397 988 q 663 951 586 988 q 792 847 739 914 q 875 688 846 781 q 904 486 904 596 m 756 486 q 688 746 756 650 q 492 842 621 842 q 297 746 364 842 q 229 486 229 650 q 247 338 229 404 q 297 225 264 272 q 379 153 331 178 q 492 128 428 128 q 526 130 511 128 q 557 135 542 132 l 486 244 l 606 319 l 676 208 q 737 324 718 254 q 756 486 756 394 z "},"R":{"ha":964,"x_min":126,"x_max":865,"o":"m 865 682 q 808 493 865 564 q 651 397 751 422 l 850 0 l 682 0 l 489 385 l 269 385 l 269 0 l 126 0 l 126 972 l 553 972 q 673 955 617 972 q 772 902 729 938 q 840 812 815 867 q 865 682 865 757 m 718 678 q 673 794 718 754 q 553 835 628 835 l 269 835 l 269 522 l 553 522 q 672 560 626 522 q 718 678 718 599 z "},"S":{"ha":869,"x_min":72,"x_max":778,"o":"m 778 279 q 756 160 778 214 q 691 67 735 106 q 579 6 647 28 q 418 -15 511 -15 q 223 27 311 -15 q 72 142 135 69 l 176 243 q 292 159 225 190 q 429 128 360 128 q 631 269 631 128 q 619 319 631 297 q 582 360 608 342 q 514 396 556 379 q 411 431 472 413 q 276 476 333 453 q 182 531 219 500 q 126 607 144 563 q 107 717 107 651 q 132 830 107 779 q 200 915 157 881 q 302 969 243 950 q 428 988 361 988 q 604 953 528 988 q 746 856 681 918 l 643 751 q 543 822 597 799 q 417 844 489 844 q 292 808 331 844 q 254 724 254 772 q 264 678 254 699 q 297 641 274 658 q 363 607 321 624 q 467 572 404 590 q 597 526 539 550 q 694 469 654 503 q 756 390 735 436 q 778 279 778 344 z "},"T":{"ha":843,"x_min":65,"x_max":778,"o":"m 494 829 l 494 0 l 349 0 l 349 829 l 65 829 l 65 972 l 778 972 l 778 829 l 494 829 z "},"U":{"ha":978,"x_min":119,"x_max":858,"o":"m 858 406 q 763 92 858 200 q 485 -15 667 -15 q 212 96 304 -15 q 119 408 119 207 l 119 972 l 265 972 l 265 413 q 322 202 265 274 q 488 131 378 131 q 658 199 603 131 q 713 403 713 268 l 713 972 l 858 972 l 858 406 l 858 406 z "},"V":{"ha":956,"x_min":65,"x_max":890,"o":"m 557 0 l 403 0 l 65 972 l 224 972 l 426 353 q 442 306 433 332 q 458 256 450 281 q 472 209 465 231 q 481 175 478 188 q 490 209 483 188 q 503 256 496 231 q 519 307 511 281 q 535 354 528 333 l 735 972 l 890 972 l 557 0 z "},"W":{"ha":1199,"x_min":75,"x_max":1129,"o":"m 931 0 l 783 0 l 632 628 q 625 659 629 640 q 617 697 621 678 q 609 732 613 715 q 604 757 606 749 q 599 732 603 749 q 592 697 596 715 q 583 659 588 678 q 576 628 579 640 l 418 0 l 274 0 l 75 972 l 222 972 l 339 358 q 344 331 340 347 q 351 296 347 314 q 357 260 354 278 q 361 231 360 243 q 366 260 363 243 q 374 294 369 276 q 381 329 378 313 q 388 357 385 346 l 543 972 l 668 972 l 826 343 q 839 290 832 324 q 850 231 846 257 q 861 292 856 258 q 869 344 867 326 l 988 972 l 1129 972 l 931 0 z "},"X":{"ha":915,"x_min":76,"x_max":853,"o":"m 679 0 l 569 189 q 541 240 557 211 q 510 297 525 268 q 482 349 494 325 q 463 386 469 372 q 444 349 456 372 q 417 297 432 325 q 385 241 401 269 q 356 189 369 213 l 247 0 l 76 0 l 378 501 l 96 972 l 269 972 l 358 815 q 387 764 371 793 q 418 707 403 735 q 446 655 433 679 q 465 617 458 631 q 485 654 472 631 q 512 706 497 678 q 542 763 526 735 q 572 815 558 792 l 663 972 l 833 972 l 551 503 l 853 0 l 679 0 z "},"Y":{"ha":957,"x_min":57,"x_max":900,"o":"m 551 385 l 551 0 l 406 0 l 406 385 l 57 972 l 228 972 l 379 704 q 406 654 392 682 q 435 599 421 626 q 461 549 450 572 q 479 511 472 525 q 497 548 485 525 q 522 597 508 571 q 551 651 536 624 q 579 703 567 679 l 732 972 l 900 972 l 551 385 z "},"Z":{"ha":922,"x_min":83,"x_max":822,"o":"m 83 0 l 83 142 l 558 715 q 585 747 569 729 q 615 783 600 765 q 644 815 631 800 q 668 840 658 831 q 628 840 653 840 q 576 838 604 839 q 521 838 549 838 q 472 838 493 838 l 111 838 l 111 972 l 822 972 l 822 831 l 353 257 q 326 225 342 243 q 296 190 311 207 q 267 157 281 172 q 243 132 253 142 q 282 133 257 132 q 335 134 307 133 q 390 135 363 135 q 439 135 418 135 l 822 135 l 822 0 l 83 0 z "},"[":{"ha":528,"x_min":132,"x_max":440,"o":"m 132 -153 l 132 972 l 440 972 l 440 854 l 269 854 l 269 -35 l 440 -35 l 440 -153 l 132 -153 z "},"\\":{"ha":619,"x_min":22,"x_max":597,"o":"m 454 -125 l 22 1097 l 165 1097 l 597 -125 l 454 -125 z "},"]":{"ha":528,"x_min":88,"x_max":396,"o":"m 88 -153 l 88 -35 l 258 -35 l 258 854 l 88 854 l 88 972 l 396 972 l 396 -153 l 88 -153 z "},"^":{"ha":803,"x_min":65,"x_max":738,"o":"m 578 531 l 400 821 l 222 531 l 65 531 l 346 972 l 457 972 l 738 531 l 578 531 z "},"_":{"ha":694,"x_min":0,"x_max":694,"o":"m 0 -246 l 0 -114 l 694 -114 l 694 -246 l 0 -246 z "},"`":{"ha":694,"x_min":139,"x_max":482,"o":"m 368 826 l 139 1049 l 333 1049 l 482 826 l 368 826 z "},"a":{"ha":764,"x_min":71,"x_max":664,"o":"m 524 0 l 524 72 q 435 10 486 35 q 324 -15 383 -15 q 234 -2 279 -15 q 153 40 189 11 q 94 117 117 69 q 71 231 71 164 q 93 336 71 292 q 154 410 115 381 q 246 453 193 439 q 361 467 299 467 q 524 439 461 467 l 524 493 q 488 585 524 553 q 386 617 453 617 q 284 606 329 617 q 196 571 239 594 l 140 679 q 253 728 193 711 q 390 744 313 744 q 588 684 513 744 q 664 500 664 624 l 664 0 l 524 0 m 524 311 q 455 335 494 326 q 357 343 415 343 q 247 314 288 343 q 207 235 207 285 q 242 147 207 181 q 347 114 276 114 q 452 143 406 114 q 524 207 499 172 l 524 311 z "},"b":{"ha":792,"x_min":106,"x_max":718,"o":"m 718 353 q 694 190 718 258 q 631 75 671 121 q 540 7 592 29 q 431 -15 488 -15 q 326 10 375 -15 q 247 68 278 35 l 247 0 l 106 0 l 106 939 l 247 1013 l 247 660 q 333 720 288 696 q 438 744 379 744 q 547 722 496 744 q 637 653 599 700 q 697 531 675 606 q 718 353 718 457 m 575 349 q 533 550 575 488 q 411 613 490 613 q 317 584 360 613 q 246 519 274 556 l 246 213 q 276 179 258 196 q 317 149 294 163 q 364 126 339 135 q 417 117 389 117 q 535 174 494 117 q 575 349 575 232 z "},"c":{"ha":725,"x_min":71,"x_max":649,"o":"m 564 519 q 477 587 519 565 q 386 608 435 608 q 261 544 307 608 q 215 367 215 479 q 226 267 215 313 q 260 190 238 222 q 315 139 282 157 q 390 121 347 121 q 477 144 442 121 q 556 211 513 167 l 647 121 q 601 69 626 93 q 545 26 576 44 q 475 -4 514 7 q 386 -15 436 -15 q 262 12 319 -15 q 162 88 204 39 q 95 207 119 138 q 71 363 71 276 q 96 524 71 453 q 164 644 121 594 q 265 719 207 693 q 390 744 324 744 q 534 713 471 744 q 649 621 597 682 l 564 519 z "},"d":{"ha":792,"x_min":74,"x_max":686,"o":"m 544 0 l 544 69 q 458 9 504 33 q 354 -15 413 -15 q 244 7 296 -15 q 155 76 193 29 q 95 198 117 124 q 74 376 74 272 q 97 539 74 469 q 160 654 121 608 q 252 722 200 700 q 361 744 304 744 q 465 719 417 744 q 544 661 514 694 l 544 939 l 686 1013 l 686 0 l 544 0 m 546 517 q 515 550 533 533 q 475 581 497 567 q 427 603 453 594 q 375 613 401 613 q 257 555 297 613 q 217 381 217 497 q 259 179 217 242 q 381 117 301 117 q 475 145 432 117 q 546 210 518 174 l 546 517 z "},"e":{"ha":769,"x_min":71,"x_max":697,"o":"m 697 379 q 696 342 697 360 q 693 314 694 325 l 211 314 q 233 224 217 261 q 275 162 250 186 q 331 126 300 138 q 394 114 361 114 q 478 129 440 114 q 553 172 517 144 l 638 81 q 529 10 589 35 q 386 -15 469 -15 q 265 10 322 -15 q 164 83 207 35 q 96 203 121 132 q 71 364 71 274 q 94 528 71 457 q 160 647 118 599 q 260 719 201 694 q 390 744 319 744 q 526 715 468 744 q 622 636 583 686 q 678 519 660 586 q 697 379 697 453 m 553 432 q 540 503 550 469 q 508 561 529 536 q 456 601 488 586 q 381 615 425 615 q 266 567 308 615 q 214 432 224 519 l 553 432 z "},"f":{"ha":503,"x_min":60,"x_max":447,"o":"m 447 869 q 364 883 400 883 q 313 868 328 883 q 297 813 297 853 l 297 729 l 432 729 l 432 596 l 297 596 l 297 0 l 154 0 l 154 596 l 60 596 l 60 729 l 154 729 l 154 825 q 169 910 154 875 q 208 967 183 944 q 267 999 233 989 q 339 1008 300 1008 q 395 1005 367 1008 q 447 994 424 1001 l 447 869 l 447 869 z "},"g":{"ha":792,"x_min":74,"x_max":686,"o":"m 686 69 q 669 -76 686 -14 q 613 -179 653 -137 q 507 -243 574 -221 q 342 -268 440 -265 l 293 -160 q 419 -143 369 -156 q 495 -105 468 -131 q 533 -40 522 -79 q 543 57 543 0 l 543 69 q 458 9 503 33 q 354 -15 413 -15 q 244 7 296 -15 q 156 76 193 29 q 96 198 118 124 q 74 376 74 272 q 97 539 74 469 q 161 654 121 608 q 253 722 201 700 q 361 744 304 744 q 465 719 417 744 q 543 661 514 694 l 543 729 l 686 729 l 686 69 m 546 517 q 515 550 533 533 q 475 581 497 567 q 427 603 453 594 q 375 613 401 613 q 257 555 297 613 q 217 381 217 497 q 259 179 217 242 q 381 117 301 117 q 475 145 432 117 q 546 210 518 174 l 546 517 z "},"h":{"ha":792,"x_min":106,"x_max":692,"o":"m 549 0 l 549 413 q 509 568 549 524 q 399 613 469 613 q 288 564 326 613 q 249 426 249 515 l 249 0 l 106 0 l 106 938 l 249 1013 l 249 660 q 326 722 276 700 q 432 744 375 744 q 626 663 560 744 q 692 418 692 581 l 692 0 l 549 0 z "},"i":{"ha":368,"x_min":92,"x_max":276,"o":"m 276 915 q 249 851 276 878 q 185 824 222 824 q 119 851 146 824 q 92 915 92 878 q 119 981 92 954 q 185 1008 146 1008 q 249 981 222 1008 q 276 915 276 954 m 113 0 l 113 729 l 256 729 l 256 0 l 113 0 z "},"j":{"ha":368,"x_min":-40,"x_max":276,"o":"m 276 915 q 249 851 276 878 q 185 824 222 824 q 119 851 146 824 q 92 915 92 878 q 119 981 92 954 q 185 1008 146 1008 q 249 981 222 1008 q 276 915 276 954 m 256 33 q 245 -85 256 -36 q 208 -170 235 -135 q 132 -229 181 -206 q 8 -268 83 -253 l -40 -160 q 40 -132 10 -146 q 86 -97 69 -118 q 108 -47 103 -76 q 113 31 113 -17 l 113 729 l 256 729 l 256 33 z "},"k":{"ha":735,"x_min":106,"x_max":676,"o":"m 521 0 l 360 363 l 249 215 l 249 0 l 106 0 l 106 938 l 249 1013 l 249 553 q 249 515 249 536 q 248 472 249 493 q 247 431 247 450 q 247 397 247 411 q 286 455 263 419 q 328 517 310 490 l 479 729 l 642 729 l 457 485 l 676 0 l 521 0 z "},"l":{"ha":368,"x_min":113,"x_max":256,"o":"m 113 0 l 113 938 l 256 1013 l 256 0 l 113 0 z "},"m":{"ha":1196,"x_min":106,"x_max":1096,"o":"m 953 0 l 953 413 q 918 568 953 524 q 813 613 883 613 q 706 564 740 613 q 672 426 672 515 l 672 0 l 529 0 l 529 413 q 494 568 529 524 q 389 613 460 613 q 283 564 317 613 q 249 426 249 515 l 249 0 l 106 0 l 106 729 l 249 729 l 249 660 q 321 722 276 700 q 422 744 365 744 q 545 717 497 744 q 622 638 593 690 q 663 682 642 663 q 711 715 685 701 q 770 737 738 729 q 846 744 803 744 q 1035 663 974 744 q 1096 418 1096 581 l 1096 0 l 953 0 z "},"n":{"ha":792,"x_min":106,"x_max":692,"o":"m 549 0 l 549 413 q 509 568 549 524 q 399 613 469 613 q 288 564 326 613 q 249 426 249 515 l 249 0 l 106 0 l 106 729 l 249 729 l 249 660 q 326 722 276 700 q 432 744 375 744 q 626 663 560 744 q 692 418 692 581 l 692 0 l 549 0 z "},"o":{"ha":792,"x_min":71,"x_max":721,"o":"m 721 368 q 696 206 721 278 q 626 85 671 135 q 522 10 582 36 q 392 -15 463 -15 q 264 12 322 -15 q 163 89 206 39 q 95 208 119 139 q 71 364 71 278 q 96 524 71 453 q 165 644 121 594 q 267 719 208 693 q 396 744 326 744 q 525 717 465 744 q 628 642 585 690 q 697 523 672 593 q 721 368 721 453 m 576 364 q 527 542 576 476 q 390 608 478 608 q 262 542 308 608 q 215 368 215 476 q 265 184 215 247 q 397 121 315 121 q 471 140 438 121 q 528 192 504 160 q 564 269 551 225 q 576 364 576 314 z "},"p":{"ha":792,"x_min":106,"x_max":718,"o":"m 718 353 q 694 190 718 258 q 631 75 671 121 q 540 7 592 29 q 431 -15 488 -15 q 326 10 375 -15 q 247 68 278 35 l 247 -194 l 106 -268 l 106 729 l 247 729 l 247 660 q 333 720 288 696 q 438 744 379 744 q 547 722 496 744 q 637 653 599 700 q 697 531 675 606 q 718 353 718 457 m 575 349 q 533 550 575 488 q 411 613 490 613 q 317 584 360 613 q 246 519 274 556 l 246 213 q 276 179 258 196 q 317 149 294 163 q 364 126 339 135 q 417 117 389 117 q 535 174 494 117 q 575 349 575 232 z "},"q":{"ha":792,"x_min":74,"x_max":686,"o":"m 544 -268 l 544 69 q 458 9 504 33 q 354 -15 413 -15 q 244 7 296 -15 q 155 76 193 29 q 95 198 117 124 q 74 376 74 272 q 97 539 74 469 q 160 654 121 608 q 252 722 200 700 q 361 744 304 744 q 465 719 417 744 q 544 661 514 694 l 544 729 l 686 729 l 686 -194 l 544 -268 m 546 517 q 515 550 533 533 q 475 581 497 567 q 427 603 453 594 q 375 613 401 613 q 257 555 297 613 q 217 381 217 497 q 259 179 217 242 q 381 117 301 117 q 475 145 432 117 q 546 210 518 174 l 546 517 z "},"r":{"ha":581,"x_min":106,"x_max":539,"o":"m 501 578 q 453 597 478 590 q 392 604 428 604 q 286 557 324 604 q 249 417 249 510 l 249 0 l 106 0 l 106 729 l 249 729 l 249 660 q 317 720 274 696 q 415 744 361 744 q 488 737 460 744 q 539 714 517 729 l 501 578 z "},"s":{"ha":693,"x_min":63,"x_max":615,"o":"m 615 200 q 592 98 615 139 q 532 32 569 57 q 445 -4 494 7 q 342 -15 396 -15 q 192 11 267 -15 q 63 78 118 38 l 128 186 q 234 132 179 150 q 340 114 289 114 q 474 194 474 114 q 428 261 474 236 q 304 317 383 286 q 205 362 246 339 q 138 411 164 385 q 101 470 113 438 q 90 546 90 503 q 108 632 90 594 q 160 694 126 669 q 239 732 193 719 q 339 744 285 744 q 473 722 408 744 q 586 664 538 700 l 524 554 q 433 601 479 586 q 335 617 388 617 q 258 598 282 617 q 235 550 235 579 q 240 524 235 536 q 261 500 246 513 q 302 474 276 488 q 369 444 328 461 q 476 399 431 421 q 553 351 522 378 q 600 288 585 324 q 615 200 615 251 z "},"t":{"ha":560,"x_min":46,"x_max":471,"o":"m 454 18 q 392 -6 428 3 q 314 -15 357 -15 q 194 32 238 -15 q 150 178 150 79 l 150 599 l 46 599 l 46 729 l 150 729 l 150 938 l 290 1013 l 290 729 l 471 729 l 471 599 l 290 599 l 290 203 q 308 133 290 151 q 365 115 325 115 q 422 124 393 115 q 471 144 451 133 l 454 18 z "},"u":{"ha":792,"x_min":100,"x_max":686,"o":"m 543 0 l 543 69 q 466 7 515 29 q 360 -15 417 -15 q 166 67 232 -15 q 100 311 100 149 l 100 729 l 243 729 l 243 317 q 283 161 243 206 q 393 117 322 117 q 504 165 465 117 q 543 303 543 214 l 543 729 l 686 729 l 686 0 l 543 0 z "},"v":{"ha":753,"x_min":46,"x_max":707,"o":"m 450 0 l 307 0 l 46 729 l 196 729 l 326 333 q 359 233 344 281 q 381 154 374 185 q 401 233 388 185 q 431 333 414 281 l 556 729 l 707 729 l 450 0 z "},"w":{"ha":1029,"x_min":56,"x_max":974,"o":"m 771 0 l 649 0 l 550 368 q 528 453 539 410 q 513 524 518 497 q 497 453 507 497 q 475 367 486 408 l 378 0 l 256 0 l 56 729 l 197 729 l 283 375 q 304 288 294 333 q 319 215 314 242 q 338 288 326 243 q 360 375 349 332 l 457 729 l 572 729 l 671 374 q 692 287 682 331 q 710 215 703 243 q 726 288 717 243 q 746 375 735 333 l 832 729 l 974 729 l 771 0 z "},"x":{"ha":738,"x_min":56,"x_max":682,"o":"m 513 0 l 443 126 q 399 210 421 167 q 367 274 378 253 q 353 245 363 263 q 333 208 344 228 q 310 165 322 188 q 288 125 297 143 l 217 0 l 56 0 l 285 378 l 71 729 l 236 729 l 293 626 q 338 544 315 586 q 369 481 360 501 q 384 508 375 490 q 403 546 393 525 q 425 588 414 567 q 447 629 436 610 l 503 729 l 667 729 l 451 378 l 682 0 l 513 0 z "},"y":{"ha":772,"x_min":46,"x_max":726,"o":"m 360 -257 l 208 -257 l 314 14 l 46 729 l 203 729 l 322 372 q 340 318 331 349 q 359 257 350 288 q 376 201 368 226 q 386 160 383 175 q 398 202 390 176 q 415 257 406 228 q 433 316 424 286 q 451 369 443 346 l 575 729 l 726 729 l 360 -257 z "},"z":{"ha":732,"x_min":81,"x_max":643,"o":"m 81 0 l 81 117 l 393 499 q 440 557 415 526 q 481 604 465 588 q 454 604 471 604 q 419 604 438 604 q 382 604 400 604 q 350 604 364 604 l 108 604 l 108 729 l 643 729 l 643 614 l 338 232 q 290 173 315 204 q 250 125 265 142 q 277 125 260 125 q 313 125 294 125 q 351 125 332 125 q 383 125 369 125 l 643 125 l 643 0 l 81 0 z "},"{":{"ha":590,"x_min":85,"x_max":517,"o":"m 517 -153 q 272 -80 347 -153 q 196 140 196 -7 l 196 229 q 180 326 196 301 q 117 350 164 350 l 85 350 l 85 474 l 117 474 q 180 498 164 474 q 196 594 196 522 l 196 685 q 272 906 196 832 q 517 979 347 979 l 517 874 q 433 855 467 868 q 378 819 399 842 q 349 766 357 797 q 340 693 340 735 l 340 628 q 335 543 340 579 q 317 481 329 507 q 284 439 304 456 q 235 411 264 422 q 317 342 294 390 q 340 196 340 293 l 340 131 q 378 6 340 49 q 517 -46 415 -36 l 517 -153 l 517 -153 z "},"|":{"ha":410,"x_min":139,"x_max":271,"o":"m 139 -257 l 139 1111 l 271 1111 l 271 -257 l 139 -257 z "},"}":{"ha":590,"x_min":74,"x_max":506,"o":"m 474 353 q 410 328 426 353 q 394 232 394 304 l 394 142 q 319 -79 394 -6 q 74 -153 243 -153 l 74 -47 q 213 6 175 -37 q 250 133 250 50 l 250 199 q 256 283 250 247 q 274 345 261 319 q 306 388 286 371 q 356 415 326 404 q 306 442 326 425 q 274 484 286 458 q 256 546 261 510 q 250 631 250 582 l 250 696 q 242 768 250 738 q 213 820 233 799 q 158 854 192 842 q 74 872 124 867 l 74 979 q 319 906 243 979 q 394 686 394 833 l 394 597 q 410 501 394 525 q 474 476 426 476 l 506 476 l 506 353 l 474 353 z "},"~":{"ha":781,"x_min":58,"x_max":722,"o":"m 722 589 q 636 443 685 493 q 510 393 588 393 q 439 405 467 393 q 376 440 411 417 q 306 483 332 471 q 261 496 281 496 q 208 473 228 496 q 158 390 188 450 l 58 442 q 144 588 96 538 q 271 638 193 638 q 342 626 314 638 q 404 590 369 614 q 518 535 485 535 q 548 540 535 535 q 572 557 561 544 q 595 590 583 569 q 622 640 607 610 l 722 589 l 722 589 z "},"Ä":{"ha":989,"x_min":65,"x_max":924,"o":"m 768 0 l 686 231 l 297 231 l 217 0 l 65 0 l 415 972 l 569 972 l 924 0 l 768 0 m 564 585 q 544 643 556 611 q 523 707 533 675 q 503 766 513 739 q 490 808 494 793 q 478 766 486 793 q 460 708 469 739 q 440 643 450 676 q 419 583 429 610 l 342 361 l 642 361 l 564 585 m 718 1128 q 690 1063 718 1090 q 625 1035 663 1035 q 558 1063 586 1035 q 531 1128 531 1090 q 558 1194 531 1167 q 625 1222 586 1222 q 690 1194 663 1222 q 718 1128 718 1167 m 447 1128 q 419 1063 447 1090 q 354 1035 392 1035 q 288 1063 315 1035 q 260 1128 260 1090 q 288 1194 260 1167 q 354 1222 315 1222 q 419 1194 392 1222 q 447 1128 447 1167 z "},"Å":{"ha":989,"x_min":65,"x_max":924,"o":"m 764 0 l 683 226 l 301 226 l 222 0 l 65 0 l 390 903 q 337 964 357 926 q 317 1047 317 1001 q 330 1117 317 1085 q 367 1172 343 1149 q 422 1209 390 1196 q 492 1222 454 1222 q 561 1209 529 1222 q 617 1172 593 1196 q 653 1117 640 1149 q 667 1047 667 1085 q 647 965 667 1001 q 594 904 628 928 l 924 0 l 764 0 m 576 1047 q 552 1108 576 1083 q 492 1132 528 1132 q 431 1108 456 1132 q 407 1047 407 1083 q 431 987 407 1011 q 492 963 456 963 q 552 987 528 963 q 576 1047 576 1011 m 557 585 q 540 635 549 607 q 521 690 531 663 q 503 742 511 718 q 492 779 496 765 q 480 742 488 765 q 463 691 472 718 q 445 638 454 664 q 429 590 436 611 l 351 367 l 633 367 l 557 585 z "},"Ç":{"ha":910,"x_min":81,"x_max":826,"o":"m 826 171 q 692 35 775 83 q 501 -15 610 -12 l 493 -62 q 521 -53 506 -57 q 560 -50 536 -50 q 595 -56 578 -50 q 627 -73 613 -61 q 651 -103 642 -85 q 660 -147 660 -121 q 647 -203 660 -181 q 610 -241 633 -226 q 556 -262 588 -256 q 490 -268 525 -268 q 399 -255 440 -268 q 319 -218 357 -242 l 350 -172 q 409 -197 378 -187 q 472 -206 440 -206 q 540 -190 518 -206 q 561 -151 561 -175 q 549 -119 561 -131 q 517 -107 536 -107 q 485 -112 497 -107 q 461 -128 472 -118 l 411 -108 l 431 -11 q 285 42 350 0 q 175 148 221 83 q 105 299 129 213 q 81 486 81 385 q 110 688 81 596 q 192 847 139 781 q 322 951 246 914 q 492 988 397 988 q 692 941 611 988 q 822 806 772 894 l 693 725 q 611 813 656 785 q 492 842 567 842 q 297 746 364 842 q 231 486 231 650 q 297 226 231 322 q 492 131 364 131 q 618 161 568 131 q 706 251 668 192 l 826 171 l 826 171 z "},"É":{"ha":854,"x_min":126,"x_max":774,"o":"m 126 0 l 126 972 l 753 972 l 753 831 l 272 831 l 272 590 l 551 590 l 551 449 l 272 449 l 272 142 l 774 142 l 774 0 l 126 0 m 461 1035 l 347 1035 l 496 1257 l 690 1257 l 461 1035 z "},"Ñ":{"ha":992,"x_min":126,"x_max":865,"o":"m 726 0 l 339 610 q 299 674 321 638 q 267 729 278 710 q 267 686 267 715 q 267 624 267 657 q 268 558 268 590 q 268 504 268 525 l 268 0 l 126 0 l 126 972 l 275 972 l 644 379 q 666 344 654 364 q 689 305 678 325 q 710 268 700 285 q 725 242 719 251 q 725 285 725 256 q 724 349 725 315 q 724 417 724 383 q 724 471 724 450 l 724 972 l 865 972 l 865 0 l 726 0 m 764 1222 q 722 1081 764 1129 q 618 1033 681 1033 q 581 1037 599 1033 q 544 1047 563 1040 q 503 1066 525 1054 q 454 1094 481 1078 q 425 1108 439 1103 q 400 1114 411 1114 q 364 1097 376 1114 q 346 1038 351 1081 l 247 1038 q 289 1178 247 1131 q 393 1226 331 1226 q 467 1213 432 1226 q 557 1165 503 1199 q 586 1151 572 1157 q 611 1146 600 1146 q 647 1163 635 1146 q 665 1222 660 1179 l 764 1222 l 764 1222 z "},"Ö":{"ha":985,"x_min":81,"x_max":904,"o":"m 904 486 q 875 283 904 375 q 792 125 846 192 q 663 22 739 58 q 492 -15 586 -15 q 322 22 397 -15 q 192 125 246 58 q 110 283 139 192 q 81 486 81 375 q 110 688 81 596 q 192 847 139 781 q 322 951 246 914 q 492 988 397 988 q 663 951 586 988 q 792 847 739 914 q 875 688 846 781 q 904 486 904 596 m 756 486 q 688 746 756 650 q 492 842 621 842 q 297 746 364 842 q 229 486 229 650 q 297 226 229 322 q 492 131 364 131 q 688 226 621 131 q 756 486 756 322 m 715 1128 q 688 1063 715 1090 q 622 1035 660 1035 q 556 1063 583 1035 q 528 1128 528 1090 q 556 1194 528 1167 q 622 1222 583 1222 q 688 1194 660 1222 q 715 1128 715 1167 m 444 1128 q 417 1063 444 1090 q 351 1035 389 1035 q 285 1063 313 1035 q 257 1128 257 1090 q 285 1194 257 1167 q 351 1222 313 1222 q 417 1194 389 1222 q 444 1128 444 1167 z "},"Ü":{"ha":978,"x_min":119,"x_max":858,"o":"m 858 406 q 763 92 858 200 q 485 -15 667 -15 q 212 96 304 -15 q 119 408 119 207 l 119 972 l 265 972 l 265 413 q 322 202 265 274 q 488 131 378 131 q 658 199 603 131 q 713 403 713 268 l 713 972 l 858 972 l 858 406 l 858 406 m 718 1128 q 690 1063 718 1090 q 625 1035 663 1035 q 558 1063 586 1035 q 531 1128 531 1090 q 558 1194 531 1167 q 625 1222 586 1222 q 690 1194 663 1222 q 718 1128 718 1167 m 447 1128 q 419 1063 447 1090 q 354 1035 392 1035 q 288 1063 315 1035 q 260 1128 260 1090 q 288 1194 260 1167 q 354 1222 315 1222 q 419 1194 392 1222 q 447 1128 447 1167 z "},"á":{"ha":764,"x_min":71,"x_max":664,"o":"m 524 0 l 524 72 q 435 10 486 35 q 324 -15 383 -15 q 234 -2 279 -15 q 153 40 189 11 q 94 117 117 69 q 71 231 71 164 q 93 336 71 292 q 154 410 115 381 q 246 453 193 439 q 361 467 299 467 q 524 439 461 467 l 524 493 q 488 585 524 553 q 386 617 453 617 q 284 606 329 617 q 196 571 239 594 l 140 679 q 253 728 193 711 q 390 744 313 744 q 588 684 513 744 q 664 500 664 624 l 664 0 l 524 0 m 524 311 q 455 335 494 326 q 357 343 415 343 q 247 314 288 343 q 207 235 207 285 q 242 147 207 181 q 347 114 276 114 q 452 143 406 114 q 524 207 499 172 l 524 311 m 415 826 l 301 826 l 450 1049 l 644 1049 l 415 826 z "},"à":{"ha":764,"x_min":71,"x_max":664,"o":"m 524 0 l 524 72 q 435 10 486 35 q 324 -15 383 -15 q 234 -2 279 -15 q 153 40 189 11 q 94 117 117 69 q 71 231 71 164 q 93 336 71 292 q 154 410 115 381 q 246 453 193 439 q 361 467 299 467 q 524 439 461 467 l 524 493 q 488 585 524 553 q 386 617 453 617 q 284 606 329 617 q 196 571 239 594 l 140 679 q 253 728 193 711 q 390 744 313 744 q 588 684 513 744 q 664 500 664 624 l 664 0 l 524 0 m 524 311 q 455 335 494 326 q 357 343 415 343 q 247 314 288 343 q 207 235 207 285 q 242 147 207 181 q 347 114 276 114 q 452 143 406 114 q 524 207 499 172 l 524 311 m 361 826 l 132 1049 l 326 1049 l 475 826 l 361 826 z "},"â":{"ha":764,"x_min":71,"x_max":664,"o":"m 524 0 l 524 72 q 435 10 486 35 q 324 -15 383 -15 q 234 -2 279 -15 q 153 40 189 11 q 94 117 117 69 q 71 231 71 164 q 93 336 71 292 q 154 410 115 381 q 246 453 193 439 q 361 467 299 467 q 524 439 461 467 l 524 493 q 488 585 524 553 q 386 617 453 617 q 284 606 329 617 q 196 571 239 594 l 140 679 q 253 728 193 711 q 390 744 313 744 q 588 684 513 744 q 664 500 664 624 l 664 0 l 524 0 m 524 311 q 455 335 494 326 q 357 343 415 343 q 247 314 288 343 q 207 235 207 285 q 242 147 207 181 q 347 114 276 114 q 452 143 406 114 q 524 207 499 172 l 524 311 m 517 821 l 385 943 l 253 821 l 140 821 l 303 1043 l 469 1043 l 632 821 l 517 821 z "},"ä":{"ha":764,"x_min":71,"x_max":664,"o":"m 524 0 l 524 72 q 435 10 486 35 q 324 -15 383 -15 q 234 -2 279 -15 q 153 40 189 11 q 94 117 117 69 q 71 231 71 164 q 93 336 71 292 q 154 410 115 381 q 246 453 193 439 q 361 467 299 467 q 524 439 461 467 l 524 493 q 488 585 524 553 q 386 617 453 617 q 284 606 329 617 q 196 571 239 594 l 140 679 q 253 728 193 711 q 390 744 313 744 q 588 684 513 744 q 664 500 664 624 l 664 0 l 524 0 m 524 311 q 455 335 494 326 q 357 343 415 343 q 247 314 288 343 q 207 235 207 285 q 242 147 207 181 q 347 114 276 114 q 452 143 406 114 q 524 207 499 172 l 524 311 m 615 914 q 588 849 615 876 q 522 821 560 821 q 456 849 483 821 q 428 914 428 876 q 456 981 428 953 q 522 1008 483 1008 q 588 981 560 1008 q 615 914 615 953 m 344 914 q 317 849 344 876 q 251 821 289 821 q 185 849 213 821 q 157 914 157 876 q 185 981 157 953 q 251 1008 213 1008 q 317 981 289 1008 q 344 914 344 953 z "},"ã":{"ha":764,"x_min":71,"x_max":664,"o":"m 524 0 l 524 72 q 435 10 486 35 q 324 -15 383 -15 q 234 -2 279 -15 q 153 40 189 11 q 94 117 117 69 q 71 231 71 164 q 93 336 71 292 q 154 410 115 381 q 246 453 193 439 q 361 467 299 467 q 524 439 461 467 l 524 493 q 488 585 524 553 q 386 617 453 617 q 284 606 329 617 q 196 571 239 594 l 140 679 q 253 728 193 711 q 390 744 313 744 q 588 684 513 744 q 664 500 664 624 l 664 0 l 524 0 m 524 311 q 455 335 494 326 q 357 343 415 343 q 247 314 288 343 q 207 235 207 285 q 242 147 207 181 q 347 114 276 114 q 452 143 406 114 q 524 207 499 172 l 524 311 m 638 1011 q 596 870 638 918 q 492 822 554 822 q 454 826 472 822 q 417 836 436 829 q 376 855 399 843 q 328 883 354 867 q 299 897 313 892 q 274 903 285 903 q 238 886 250 903 q 219 826 225 869 l 121 826 q 163 967 121 919 q 267 1015 204 1015 q 341 1001 306 1015 q 431 954 376 988 q 460 940 446 946 q 485 935 474 935 q 521 951 508 935 q 539 1011 533 968 l 638 1011 l 638 1011 z "},"å":{"ha":764,"x_min":71,"x_max":664,"o":"m 524 0 l 524 72 q 435 10 486 35 q 324 -15 383 -15 q 234 -2 279 -15 q 153 40 189 11 q 94 117 117 69 q 71 231 71 164 q 93 336 71 292 q 154 410 115 381 q 246 453 193 439 q 361 467 299 467 q 524 439 461 467 l 524 493 q 488 585 524 553 q 386 617 453 617 q 284 606 329 617 q 196 571 239 594 l 140 679 q 253 728 193 711 q 390 744 313 744 q 588 684 513 744 q 664 500 664 624 l 664 0 l 524 0 m 524 311 q 455 335 494 326 q 357 343 415 343 q 247 314 288 343 q 207 235 207 285 q 242 147 207 181 q 347 114 276 114 q 452 143 406 114 q 524 207 499 172 l 524 311 m 561 1000 q 548 931 561 963 q 511 876 535 899 q 456 840 488 853 q 386 826 424 826 q 317 840 349 826 q 261 876 285 853 q 224 931 238 899 q 211 1000 211 963 q 224 1069 211 1038 q 261 1125 238 1101 q 317 1162 285 1149 q 386 1175 349 1175 q 456 1162 424 1175 q 511 1125 488 1149 q 548 1069 535 1101 q 561 1000 561 1038 m 471 1000 q 447 1062 471 1038 q 386 1086 422 1086 q 326 1062 350 1086 q 301 1000 301 1038 q 326 938 301 963 q 386 914 350 914 q 447 938 422 914 q 471 1000 471 963 z "},"ç":{"ha":725,"x_min":71,"x_max":649,"o":"m 564 519 q 477 587 519 565 q 386 608 435 608 q 261 544 307 608 q 215 367 215 479 q 226 267 215 313 q 260 190 238 222 q 315 139 282 157 q 390 121 347 121 q 477 144 442 121 q 556 211 513 167 l 647 121 q 602 70 626 94 q 547 27 578 46 q 479 -3 517 8 q 394 -15 442 -14 l 386 -62 q 414 -53 399 -57 q 453 -50 429 -50 q 488 -56 471 -50 q 520 -73 506 -61 q 544 -103 535 -85 q 553 -147 553 -121 q 540 -203 553 -181 q 503 -241 526 -226 q 449 -262 481 -256 q 383 -268 418 -268 q 292 -255 333 -268 q 213 -218 250 -242 l 243 -172 q 302 -197 271 -187 q 365 -206 333 -206 q 433 -190 411 -206 q 454 -151 454 -175 q 442 -119 454 -131 q 410 -107 429 -107 q 378 -112 390 -107 q 354 -128 365 -118 l 304 -108 l 324 -8 q 223 34 269 3 q 142 113 176 65 q 90 224 108 161 q 71 363 71 288 q 96 524 71 453 q 164 644 121 594 q 265 719 207 693 q 390 744 324 744 q 534 713 471 744 q 649 621 597 682 l 564 519 z "},"é":{"ha":769,"x_min":71,"x_max":697,"o":"m 697 379 q 696 342 697 360 q 693 314 694 325 l 211 314 q 233 224 217 261 q 275 162 250 186 q 331 126 300 138 q 394 114 361 114 q 478 129 440 114 q 553 172 517 144 l 638 81 q 529 10 589 35 q 386 -15 469 -15 q 265 10 322 -15 q 164 83 207 35 q 96 203 121 132 q 71 364 71 274 q 94 528 71 457 q 160 647 118 599 q 260 719 201 694 q 390 744 319 744 q 526 715 468 744 q 622 636 583 686 q 678 519 660 586 q 697 379 697 453 m 553 432 q 540 503 550 469 q 508 561 529 536 q 456 601 488 586 q 381 615 425 615 q 266 567 308 615 q 214 432 224 519 l 553 432 m 413 826 l 299 826 l 447 1049 l 642 1049 l 413 826 z "},"è":{"ha":769,"x_min":71,"x_max":697,"o":"m 697 379 q 696 342 697 360 q 693 314 694 325 l 211 314 q 233 224 217 261 q 275 162 250 186 q 331 126 300 138 q 394 114 361 114 q 478 129 440 114 q 553 172 517 144 l 638 81 q 529 10 589 35 q 386 -15 469 -15 q 265 10 322 -15 q 164 83 207 35 q 96 203 121 132 q 71 364 71 274 q 94 528 71 457 q 160 647 118 599 q 260 719 201 694 q 390 744 319 744 q 526 715 468 744 q 622 636 583 686 q 678 519 660 586 q 697 379 697 453 m 553 432 q 540 503 550 469 q 508 561 529 536 q 456 601 488 586 q 381 615 425 615 q 266 567 308 615 q 214 432 224 519 l 553 432 m 358 826 l 129 1049 l 324 1049 l 472 826 l 358 826 z "},"ê":{"ha":769,"x_min":71,"x_max":697,"o":"m 697 379 q 696 342 697 360 q 693 314 694 325 l 211 314 q 233 224 217 261 q 275 162 250 186 q 331 126 300 138 q 394 114 361 114 q 478 129 440 114 q 553 172 517 144 l 638 81 q 529 10 589 35 q 386 -15 469 -15 q 265 10 322 -15 q 164 83 207 35 q 96 203 121 132 q 71 364 71 274 q 94 528 71 457 q 160 647 118 599 q 260 719 201 694 q 390 744 319 744 q 526 715 468 744 q 622 636 583 686 q 678 519 660 586 q 697 379 697 453 m 553 432 q 540 503 550 469 q 508 561 529 536 q 456 601 488 586 q 381 615 425 615 q 266 567 308 615 q 214 432 224 519 l 553 432 m 514 814 l 382 936 l 250 814 l 138 814 l 300 1036 l 467 1036 l 629 814 l 514 814 z "},"ë":{"ha":769,"x_min":71,"x_max":697,"o":"m 697 379 q 696 342 697 360 q 693 314 694 325 l 211 314 q 233 224 217 261 q 275 162 250 186 q 331 126 300 138 q 394 114 361 114 q 478 129 440 114 q 553 172 517 144 l 638 81 q 529 10 589 35 q 386 -15 469 -15 q 265 10 322 -15 q 164 83 207 35 q 96 203 121 132 q 71 364 71 274 q 94 528 71 457 q 160 647 118 599 q 260 719 201 694 q 390 744 319 744 q 526 715 468 744 q 622 636 583 686 q 678 519 660 586 q 697 379 697 453 m 553 432 q 540 503 550 469 q 508 561 529 536 q 456 601 488 586 q 381 615 425 615 q 266 567 308 615 q 214 432 224 519 l 553 432 m 613 914 q 585 849 613 876 q 519 821 557 821 q 453 849 481 821 q 425 914 425 876 q 453 981 425 953 q 519 1008 481 1008 q 585 981 557 1008 q 613 914 613 953 m 342 914 q 314 849 342 876 q 249 821 286 821 q 182 849 210 821 q 154 914 154 876 q 182 981 154 953 q 249 1008 210 1008 q 314 981 286 1008 q 342 914 342 953 z "},"í":{"ha":368,"x_min":111,"x_max":460,"o":"m 111 0 l 111 729 l 254 729 l 254 0 l 111 0 m 231 826 l 117 826 l 265 1049 l 460 1049 l 231 826 z "},"ì":{"ha":368,"x_min":-83,"x_max":260,"o":"m 111 0 l 111 729 l 254 729 l 254 0 l 111 0 m 146 826 l -83 1049 l 111 1049 l 260 826 l 146 826 z "},"î":{"ha":368,"x_min":-61,"x_max":431,"o":"m 111 0 l 111 729 l 254 729 l 254 0 l 111 0 m 315 807 l 183 929 l 51 807 l -61 807 l 101 1029 l 268 1029 l 431 807 l 315 807 z "},"ï":{"ha":368,"x_min":-46,"x_max":413,"o":"m 111 0 l 111 729 l 254 729 l 254 0 l 111 0 m 413 907 q 385 842 413 869 q 319 814 357 814 q 253 842 281 814 q 225 907 225 869 q 253 974 225 946 q 319 1001 281 1001 q 385 974 357 1001 q 413 907 413 946 m 142 907 q 114 842 142 869 q 49 814 86 814 q -18 842 10 814 q -46 907 -46 869 q -18 974 -46 946 q 49 1001 10 1001 q 114 974 86 1001 q 142 907 142 946 z "},"ñ":{"ha":792,"x_min":106,"x_max":692,"o":"m 549 0 l 549 413 q 509 568 549 524 q 399 613 469 613 q 288 564 326 613 q 249 426 249 515 l 249 0 l 106 0 l 106 729 l 249 729 l 249 660 q 326 722 276 700 q 432 744 375 744 q 626 663 560 744 q 692 418 692 581 l 692 0 l 549 0 m 646 1011 q 604 870 646 918 q 500 822 563 822 q 463 826 481 822 q 426 836 444 829 q 385 855 407 843 q 336 883 363 867 q 307 897 321 892 q 282 903 293 903 q 246 886 258 903 q 228 826 233 869 l 129 826 q 171 967 129 919 q 275 1015 213 1015 q 349 1001 314 1015 q 439 954 385 988 q 468 940 454 946 q 493 935 482 935 q 529 951 517 935 q 547 1011 542 968 l 646 1011 l 646 1011 z "},"ó":{"ha":792,"x_min":71,"x_max":721,"o":"m 721 368 q 696 206 721 278 q 626 85 671 135 q 522 10 582 36 q 392 -15 463 -15 q 264 12 322 -15 q 163 89 206 39 q 95 208 119 139 q 71 364 71 278 q 96 524 71 453 q 165 644 121 594 q 267 719 208 693 q 396 744 326 744 q 525 717 465 744 q 628 642 585 690 q 697 523 672 593 q 721 368 721 453 m 576 364 q 527 542 576 476 q 390 608 478 608 q 262 542 308 608 q 215 368 215 476 q 265 184 215 247 q 397 121 315 121 q 471 140 438 121 q 528 192 504 160 q 564 269 551 225 q 576 364 576 314 m 421 826 l 307 826 l 456 1049 l 650 1049 l 421 826 z "},"ò":{"ha":792,"x_min":71,"x_max":721,"o":"m 721 368 q 696 206 721 278 q 626 85 671 135 q 522 10 582 36 q 392 -15 463 -15 q 264 12 322 -15 q 163 89 206 39 q 95 208 119 139 q 71 364 71 278 q 96 524 71 453 q 165 644 121 594 q 267 719 208 693 q 396 744 326 744 q 525 717 465 744 q 628 642 585 690 q 697 523 672 593 q 721 368 721 453 m 576 364 q 527 542 576 476 q 390 608 478 608 q 262 542 308 608 q 215 368 215 476 q 265 184 215 247 q 397 121 315 121 q 471 140 438 121 q 528 192 504 160 q 564 269 551 225 q 576 364 576 314 m 367 826 l 138 1049 l 332 1049 l 481 826 l 367 826 z "},"ô":{"ha":792,"x_min":71,"x_max":721,"o":"m 721 368 q 696 206 721 278 q 626 85 671 135 q 522 10 582 36 q 392 -15 463 -15 q 264 12 322 -15 q 163 89 206 39 q 95 208 119 139 q 71 364 71 278 q 96 524 71 453 q 165 644 121 594 q 267 719 208 693 q 396 744 326 744 q 525 717 465 744 q 628 642 585 690 q 697 523 672 593 q 721 368 721 453 m 576 364 q 527 542 576 476 q 390 608 478 608 q 262 542 308 608 q 215 368 215 476 q 265 184 215 247 q 397 121 315 121 q 471 140 438 121 q 528 192 504 160 q 564 269 551 225 q 576 364 576 314 m 522 814 l 390 936 l 258 814 l 146 814 l 308 1036 l 475 1036 l 638 814 l 522 814 z "},"ö":{"ha":792,"x_min":71,"x_max":721,"o":"m 721 368 q 696 206 721 278 q 626 85 671 135 q 522 10 582 36 q 392 -15 463 -15 q 264 12 322 -15 q 163 89 206 39 q 95 208 119 139 q 71 364 71 278 q 96 524 71 453 q 165 644 121 594 q 267 719 208 693 q 396 744 326 744 q 525 717 465 744 q 628 642 585 690 q 697 523 672 593 q 721 368 721 453 m 576 364 q 527 542 576 476 q 390 608 478 608 q 262 542 308 608 q 215 368 215 476 q 265 184 215 247 q 397 121 315 121 q 471 140 438 121 q 528 192 504 160 q 564 269 551 225 q 576 364 576 314 m 621 907 q 593 842 621 869 q 528 814 565 814 q 461 842 489 814 q 433 907 433 869 q 461 974 433 946 q 528 1001 489 1001 q 593 974 565 1001 q 621 907 621 946 m 350 907 q 322 842 350 869 q 257 814 294 814 q 190 842 218 814 q 163 907 163 869 q 190 974 163 946 q 257 1001 218 1001 q 322 974 294 1001 q 350 907 350 946 z "},"õ":{"ha":792,"x_min":71,"x_max":721,"o":"m 721 368 q 696 206 721 278 q 626 85 671 135 q 522 10 582 36 q 392 -15 463 -15 q 264 12 322 -15 q 163 89 206 39 q 95 208 119 139 q 71 364 71 278 q 96 524 71 453 q 165 644 121 594 q 267 719 208 693 q 396 744 326 744 q 525 717 465 744 q 628 642 585 690 q 697 523 672 593 q 721 368 721 453 m 576 364 q 527 542 576 476 q 390 608 478 608 q 262 542 308 608 q 215 368 215 476 q 265 184 215 247 q 397 121 315 121 q 471 140 438 121 q 528 192 504 160 q 564 269 551 225 q 576 364 576 314 m 643 1011 q 601 870 643 918 q 497 822 560 822 q 460 826 478 822 q 423 836 442 829 q 382 855 404 843 q 333 883 360 867 q 304 897 318 892 q 279 903 290 903 q 243 886 256 903 q 225 826 231 869 l 126 826 q 168 967 126 919 q 272 1015 210 1015 q 347 1001 311 1015 q 436 954 382 988 q 465 940 451 946 q 490 935 479 935 q 526 951 514 935 q 544 1011 539 968 l 643 1011 l 643 1011 z "},"ú":{"ha":792,"x_min":100,"x_max":686,"o":"m 543 0 l 543 69 q 466 7 515 29 q 360 -15 417 -15 q 166 67 232 -15 q 100 311 100 149 l 100 729 l 243 729 l 243 317 q 283 161 243 206 q 393 117 322 117 q 504 165 465 117 q 543 303 543 214 l 543 729 l 686 729 l 686 0 l 543 0 m 422 826 l 308 826 l 457 1049 l 651 1049 l 422 826 z "},"ù":{"ha":792,"x_min":100,"x_max":686,"o":"m 543 0 l 543 69 q 466 7 515 29 q 360 -15 417 -15 q 166 67 232 -15 q 100 311 100 149 l 100 729 l 243 729 l 243 317 q 283 161 243 206 q 393 117 322 117 q 504 165 465 117 q 543 303 543 214 l 543 729 l 686 729 l 686 0 l 543 0 m 368 826 l 139 1049 l 333 1049 l 482 826 l 368 826 z "},"û":{"ha":792,"x_min":100,"x_max":686,"o":"m 543 0 l 543 69 q 466 7 515 29 q 360 -15 417 -15 q 166 67 232 -15 q 100 311 100 149 l 100 729 l 243 729 l 243 317 q 283 161 243 206 q 393 117 322 117 q 504 165 465 117 q 543 303 543 214 l 543 729 l 686 729 l 686 0 l 543 0 m 524 826 l 392 949 l 260 826 l 147 826 l 310 1049 l 476 1049 l 639 826 l 524 826 z "},"ü":{"ha":792,"x_min":100,"x_max":686,"o":"m 543 0 l 543 69 q 466 7 515 29 q 360 -15 417 -15 q 166 67 232 -15 q 100 311 100 149 l 100 729 l 243 729 l 243 317 q 283 161 243 206 q 393 117 322 117 q 504 165 465 117 q 543 303 543 214 l 543 729 l 686 729 l 686 0 l 543 0 m 622 919 q 594 854 622 882 q 529 826 567 826 q 463 854 490 826 q 435 919 435 882 q 463 986 435 958 q 529 1014 490 1014 q 594 986 567 1014 q 622 919 622 958 m 351 919 q 324 854 351 882 q 258 826 296 826 q 192 854 219 826 q 164 919 164 882 q 192 986 164 958 q 258 1014 219 1014 q 324 986 296 1014 q 351 919 351 958 z "},"†":{"ha":825,"x_min":76,"x_max":749,"o":"m 483 528 l 483 -139 l 342 -139 l 342 528 l 76 528 l 76 663 l 342 663 l 342 972 l 483 972 l 483 663 l 749 663 l 749 528 l 483 528 z "},"°":{"ha":675,"x_min":63,"x_max":613,"o":"m 613 714 q 592 605 613 656 q 533 517 571 554 q 446 458 496 479 q 338 438 396 438 q 229 458 279 438 q 142 517 179 479 q 84 605 106 554 q 63 714 63 656 q 84 821 63 771 q 142 908 106 871 q 229 966 179 944 q 338 988 279 988 q 446 966 396 988 q 533 908 496 944 q 592 821 571 871 q 613 714 613 771 m 488 714 q 476 772 488 744 q 444 819 464 799 q 397 852 424 840 q 338 864 369 864 q 278 852 306 864 q 231 819 251 840 q 199 772 211 799 q 188 714 188 744 q 199 654 188 682 q 231 606 211 626 q 278 573 251 585 q 338 561 306 561 q 397 573 369 561 q 444 606 424 585 q 476 654 464 626 q 488 714 488 682 z "},"¢":{"ha":861,"x_min":90,"x_max":779,"o":"m 678 663 q 588 731 633 710 q 474 753 542 753 q 378 735 422 753 q 303 685 335 718 q 254 607 272 653 q 236 503 236 561 q 302 308 236 379 q 481 238 368 238 q 597 261 547 238 q 685 328 646 285 l 775 242 q 678 165 733 197 q 544 122 624 133 l 544 -15 l 392 -15 l 392 122 q 170 244 250 146 q 90 493 90 342 q 113 634 90 571 q 176 745 136 697 q 272 824 217 793 q 392 867 326 854 l 392 997 l 544 997 l 544 871 q 682 830 625 860 q 779 756 739 800 l 678 663 z "},"£":{"ha":861,"x_min":115,"x_max":778,"o":"m 115 0 l 115 115 q 168 178 144 147 q 208 241 192 208 q 235 311 225 274 q 246 394 244 349 l 117 394 l 117 513 l 229 513 q 211 551 222 532 q 189 592 200 571 q 154 662 165 628 q 143 743 143 696 q 167 847 143 801 q 232 923 190 892 q 333 971 274 954 q 463 988 392 988 q 633 956 557 988 q 775 861 708 924 l 692 760 q 460 860 590 860 q 331 824 372 860 q 289 735 289 788 q 298 678 289 706 q 326 619 307 651 q 353 570 340 597 q 374 513 365 543 l 579 513 l 579 394 l 383 394 q 349 239 379 303 q 281 126 319 175 l 778 126 l 778 0 l 115 0 z "},"§":{"ha":917,"x_min":76,"x_max":840,"o":"m 840 349 q 827 276 840 308 q 792 216 814 243 q 744 167 771 189 q 689 129 717 146 q 724 72 711 104 q 736 -1 736 40 q 717 -91 736 -50 q 663 -162 699 -132 q 577 -210 628 -193 q 461 -228 526 -228 q 311 -203 379 -228 q 179 -128 243 -178 l 267 -15 q 368 -72 317 -56 q 475 -89 419 -89 q 559 -65 533 -89 q 585 -6 585 -42 q 564 42 585 22 q 510 78 543 63 q 433 107 476 93 q 343 136 389 121 q 245 174 293 153 q 160 228 197 196 q 99 304 122 260 q 76 411 76 349 q 90 483 76 450 q 124 544 103 517 q 173 592 146 571 q 228 631 200 614 q 193 688 206 656 q 181 761 181 719 q 199 850 181 808 q 253 922 218 892 q 340 970 289 953 q 456 988 390 988 q 606 963 538 988 q 738 888 674 938 l 650 775 q 549 832 600 815 q 442 849 497 849 q 358 825 383 849 q 332 765 332 801 q 353 717 332 738 q 407 682 374 697 q 484 653 440 667 q 574 624 528 639 q 672 585 624 607 q 757 532 719 564 q 817 456 794 500 q 840 349 840 411 m 690 335 q 676 392 690 368 q 638 435 663 417 q 581 468 614 454 q 513 494 549 482 q 423 524 468 510 q 336 557 378 538 q 297 534 317 547 q 262 505 278 521 q 236 469 246 489 q 226 425 226 449 q 240 367 226 392 q 278 324 254 343 q 335 292 303 306 q 404 265 368 278 q 494 236 449 250 q 581 203 539 222 q 619 226 600 213 q 655 255 639 239 q 681 291 671 271 q 690 335 690 311 z "},"•":{"ha":597,"x_min":90,"x_max":507,"o":"m 507 508 q 491 426 507 464 q 447 360 475 389 q 380 316 418 332 q 299 300 342 300 q 217 316 254 300 q 151 360 179 332 q 106 426 122 389 q 90 508 90 464 q 106 590 90 551 q 151 658 122 629 q 217 703 179 686 q 299 719 254 719 q 380 703 342 719 q 447 658 418 686 q 491 590 475 629 q 507 508 507 551 z "},"¶":{"ha":1006,"x_min":65,"x_max":882,"o":"m 744 -257 l 744 839 l 635 839 l 635 -257 l 497 -257 l 497 363 l 381 363 q 259 383 317 363 q 158 442 201 403 q 90 538 115 481 q 65 668 65 594 q 91 797 65 740 q 160 893 117 854 q 260 952 203 932 q 381 972 317 972 l 882 972 l 882 -257 l 744 -257 z "},"ß":{"ha":807,"x_min":106,"x_max":736,"o":"m 736 314 q 641 74 736 147 q 378 0 546 0 l 361 0 l 361 131 l 386 131 q 536 172 481 131 q 592 306 592 213 q 574 385 592 351 q 528 441 557 419 q 460 474 499 463 q 376 485 421 485 l 361 485 l 361 614 l 382 614 q 480 648 443 614 q 517 747 517 682 q 481 842 517 807 q 381 876 444 876 q 283 838 317 876 q 249 729 249 799 l 249 -192 l 106 -268 l 106 724 q 126 851 106 797 q 183 940 146 906 q 270 992 219 975 q 383 1008 321 1008 q 492 991 442 1008 q 581 940 543 974 q 640 859 618 907 q 661 751 661 811 q 628 626 661 675 q 538 558 594 578 q 608 533 572 550 q 672 488 643 517 q 718 417 700 460 q 736 314 736 374 z "},"®":{"ha":1161,"x_min":79,"x_max":1082,"o":"m 1082 486 q 1044 288 1082 379 q 938 128 1006 196 q 779 23 871 61 q 581 -15 688 -15 q 382 23 474 -15 q 223 128 290 61 q 117 288 156 196 q 79 486 79 379 q 117 685 79 593 q 223 844 156 776 q 382 949 290 911 q 581 988 474 988 q 779 949 688 988 q 938 844 871 911 q 1044 685 1006 776 q 1082 486 1082 593 m 1001 486 q 969 652 1001 575 q 881 786 938 729 q 747 875 824 843 q 581 907 669 907 q 414 875 490 907 q 281 786 338 843 q 192 652 224 729 q 160 486 160 575 q 192 319 160 396 q 281 186 224 243 q 414 97 338 129 q 581 65 490 65 q 747 97 669 65 q 881 186 824 129 q 969 319 938 243 q 1001 486 1001 396 m 810 604 q 778 499 810 539 q 693 443 746 458 l 806 222 l 696 222 l 589 433 l 483 433 l 483 222 l 390 222 l 390 769 l 631 769 q 699 760 667 769 q 756 730 732 750 q 795 678 781 710 q 810 604 810 647 m 715 601 q 690 660 715 640 q 628 679 665 679 l 483 679 l 483 524 l 628 524 q 690 542 665 524 q 715 601 715 561 z "},"©":{"ha":1161,"x_min":79,"x_max":1082,"o":"m 1082 486 q 1044 288 1082 379 q 938 128 1006 196 q 779 23 871 61 q 581 -15 688 -15 q 382 23 474 -15 q 223 128 290 61 q 117 288 156 196 q 79 486 79 379 q 117 685 79 593 q 223 844 156 776 q 382 949 290 911 q 581 988 474 988 q 779 949 688 988 q 938 844 871 911 q 1044 685 1006 776 q 1082 486 1082 593 m 1001 486 q 969 652 1001 575 q 881 786 938 729 q 747 875 824 843 q 581 907 669 907 q 414 875 490 907 q 281 786 338 843 q 192 652 224 729 q 160 486 160 575 q 192 319 160 396 q 281 186 224 243 q 414 97 338 129 q 581 65 490 65 q 747 97 669 65 q 881 186 824 129 q 969 319 938 243 q 1001 486 1001 396 m 778 318 q 585 206 713 206 q 489 226 532 206 q 416 285 446 247 q 369 374 386 322 q 353 489 353 426 q 369 603 353 551 q 416 692 386 656 q 489 750 446 729 q 585 771 532 771 q 699 744 653 771 q 775 663 744 717 l 693 611 q 648 662 671 646 q 585 678 625 678 q 483 627 517 678 q 449 489 449 576 q 483 350 449 401 q 585 299 517 299 q 651 317 625 299 q 700 371 676 335 l 778 318 z "},"™":{"ha":1069,"x_min":26,"x_max":1011,"o":"m 922 425 l 922 714 l 922 776 q 911 750 917 764 q 900 722 906 736 l 764 408 l 631 722 q 619 750 625 736 q 608 775 614 764 q 610 744 610 760 q 610 714 610 728 l 610 425 l 521 425 l 521 972 l 614 972 l 738 689 q 752 650 744 671 q 767 614 760 629 q 781 650 774 631 q 796 689 789 669 l 917 972 l 1011 972 l 1011 425 l 922 425 m 275 881 l 275 425 l 182 425 l 182 881 l 26 881 l 26 972 l 431 972 l 431 881 l 275 881 z "},"´":{"ha":694,"x_min":213,"x_max":556,"o":"m 326 826 l 213 826 l 361 1049 l 556 1049 l 326 826 z "},"¨":{"ha":694,"x_min":118,"x_max":576,"o":"m 576 919 q 549 854 576 882 q 483 826 521 826 q 417 854 444 826 q 389 919 389 882 q 417 986 389 958 q 483 1014 444 1014 q 549 986 521 1014 q 576 919 576 958 m 306 919 q 278 854 306 882 q 213 826 250 826 q 146 854 174 826 q 118 919 118 882 q 146 986 118 958 q 213 1014 174 1014 q 278 986 250 1014 q 306 919 306 958 z "},"≠":{"ha":1056,"x_min":28,"x_max":1028,"o":"m 796 306 q 772 303 781 297 q 763 328 756 314 l 794 419 l 590 419 l 590 213 l 681 244 q 707 235 696 251 q 704 211 713 225 l 529 -21 l 354 211 q 350 235 346 226 q 363 245 357 242 q 378 244 368 249 l 468 213 l 468 419 l 261 419 l 293 328 q 283 303 300 314 q 260 306 275 297 l 28 481 l 260 656 q 283 660 276 665 q 294 647 290 653 q 293 632 297 642 l 261 542 l 468 542 l 468 760 l 378 728 q 363 727 368 724 q 350 738 357 731 q 354 761 344 744 l 529 993 l 704 761 q 707 738 713 746 q 681 728 696 721 l 590 760 l 590 542 l 794 542 l 763 632 q 762 647 758 642 q 772 660 765 653 q 796 656 779 665 l 1028 481 l 796 306 z "},"Æ":{"ha":1414,"x_min":19,"x_max":1333,"o":"m 692 0 l 692 228 l 332 228 l 182 0 l 19 0 l 672 972 l 1313 972 l 1313 831 l 832 831 l 832 590 l 1111 590 l 1111 449 l 832 449 l 832 142 l 1333 142 l 1333 0 l 692 0 m 694 785 q 676 755 688 775 q 649 712 664 735 q 620 665 635 689 q 593 622 606 640 l 421 363 l 692 363 l 692 596 q 692 644 692 617 q 693 697 693 671 q 694 747 693 724 q 694 785 694 769 z "},"Ø":{"ha":985,"x_min":81,"x_max":904,"o":"m 904 486 q 875 283 904 375 q 792 125 846 192 q 663 22 739 58 q 492 -15 586 -15 q 338 14 408 -15 l 300 -69 l 164 -69 l 232 81 q 120 251 160 147 q 81 486 81 356 q 110 688 81 596 q 192 847 139 781 q 322 951 246 914 q 492 988 397 988 q 633 963 568 988 l 669 1042 l 806 1042 l 740 900 q 862 727 819 833 q 904 486 904 621 m 756 486 q 738 647 756 578 q 679 764 719 717 l 394 140 q 492 125 431 125 q 605 151 556 125 q 688 224 654 176 q 738 338 721 271 q 756 486 756 404 m 576 836 q 538 844 558 842 q 492 847 518 847 q 379 822 428 847 q 297 749 331 796 q 247 635 264 701 q 229 486 229 568 q 296 221 229 310 l 576 836 z "},"∞":{"ha":1056,"x_min":28,"x_max":1028,"o":"m 796 306 q 772 303 781 297 q 763 328 756 314 l 794 419 l 590 419 l 590 213 l 681 244 q 707 235 696 251 q 704 211 713 225 l 529 -21 l 354 211 q 350 235 346 226 q 363 245 357 242 q 378 244 368 249 l 468 213 l 468 419 l 261 419 l 293 328 q 283 303 300 314 q 260 306 275 297 l 28 481 l 260 656 q 283 660 276 665 q 294 647 290 653 q 293 632 297 642 l 261 542 l 468 542 l 468 760 l 378 728 q 363 727 368 724 q 350 738 357 731 q 354 761 344 744 l 529 993 l 704 761 q 707 738 713 746 q 681 728 696 721 l 590 760 l 590 542 l 794 542 l 763 632 q 762 647 758 642 q 772 660 765 653 q 796 656 779 665 l 1028 481 l 796 306 z "},"±":{"ha":861,"x_min":93,"x_max":768,"o":"m 496 496 l 496 219 l 365 219 l 365 496 l 93 496 l 93 621 l 365 621 l 365 897 l 496 897 l 496 621 l 768 621 l 768 496 l 496 496 m 93 0 l 93 115 l 768 115 l 768 0 l 93 0 z "},"≤":{"ha":861,"x_min":331,"x_max":535,"o":"m 432 -167 l 331 -167 l 351 196 l 535 196 l 432 -167 z "},"≥":{"ha":861,"x_min":321,"x_max":540,"o":"m 540 94 q 508 17 540 49 q 431 -15 476 -15 q 353 17 385 -15 q 321 94 321 49 q 353 173 321 140 q 431 206 385 206 q 508 173 476 206 q 540 94 540 140 z "},"¥":{"ha":861,"x_min":35,"x_max":826,"o":"m 503 378 l 503 292 l 728 292 l 728 169 l 503 169 l 503 0 l 358 0 l 358 169 l 135 169 l 135 292 l 358 292 l 358 375 l 35 972 l 204 972 l 328 729 q 385 609 357 669 q 432 504 414 549 q 478 610 450 549 q 536 729 507 671 l 660 972 l 826 972 l 503 378 z "},"µ":{"ha":1111,"x_min":28,"x_max":1083,"o":"m 807 286 q 778 283 788 275 q 765 318 758 296 l 794 411 l 317 411 l 346 318 q 333 283 353 296 q 303 286 322 275 l 28 481 l 304 674 q 333 678 322 686 q 346 644 353 664 l 317 550 l 794 550 l 765 644 q 778 678 758 664 q 807 674 789 686 l 1083 481 l 807 286 z "},"∂":{"ha":569,"x_min":79,"x_max":490,"o":"m 482 285 q 478 256 490 274 l 285 -21 l 90 256 q 88 285 79 275 q 122 297 100 304 l 215 268 l 215 704 l 122 675 q 88 688 100 668 q 90 718 79 699 l 285 993 l 478 717 q 482 688 490 699 q 449 675 468 668 l 354 704 l 354 268 l 449 297 q 482 285 468 304 z "},"∑":{"ha":861,"x_min":0,"x_max":0,"o":""},"∏":{"ha":1056,"x_min":28,"x_max":1028,"o":"m 796 306 q 772 303 781 297 q 763 328 756 314 l 794 419 l 590 419 l 590 213 l 681 244 q 707 235 696 251 q 704 211 713 225 l 529 -21 l 354 211 q 350 235 346 226 q 363 245 357 242 q 378 244 368 249 l 468 213 l 468 419 l 261 419 l 293 328 q 283 303 300 314 q 260 306 275 297 l 28 481 l 260 656 q 283 660 276 665 q 294 647 290 653 q 293 632 297 642 l 261 542 l 468 542 l 468 760 l 378 728 q 363 727 368 724 q 350 738 357 731 q 354 761 344 744 l 529 993 l 704 761 q 707 738 713 746 q 681 728 696 721 l 590 760 l 590 542 l 794 542 l 763 632 q 762 647 758 642 q 772 660 765 653 q 796 656 779 665 l 1028 481 l 796 306 z "},"π":{"ha":1161,"x_min":79,"x_max":1082,"o":"m 1082 486 q 1044 288 1082 379 q 938 128 1006 196 q 779 23 871 61 q 581 -15 688 -15 q 382 23 474 -15 q 223 128 290 61 q 117 288 156 196 q 79 486 79 379 q 117 685 79 593 q 223 844 156 776 q 382 949 290 911 q 581 988 474 988 q 779 949 688 988 q 938 844 871 911 q 1044 685 1006 776 q 1082 486 1082 593 m 1001 486 q 969 652 1001 575 q 881 786 938 729 q 747 875 824 843 q 581 907 669 907 q 414 875 490 907 q 281 786 338 843 q 192 652 224 729 q 160 486 160 575 q 192 319 160 396 q 281 186 224 243 q 414 97 338 129 q 581 65 490 65 q 747 97 669 65 q 881 186 824 129 q 969 319 938 243 q 1001 486 1001 396 m 825 588 q 774 456 825 500 q 640 413 722 413 l 510 413 l 510 213 l 417 213 l 417 760 l 646 760 q 715 749 682 760 q 772 716 747 738 q 810 662 796 694 q 825 588 825 629 m 731 588 q 707 649 731 628 q 644 669 683 669 l 510 669 l 510 501 l 644 501 q 709 524 688 501 q 731 588 731 547 z "},"∫":{"ha":792,"x_min":74,"x_max":686,"o":"m 544 0 l 544 69 q 458 9 504 33 q 354 -15 413 -15 q 244 7 296 -15 q 155 76 193 29 q 95 198 117 124 q 74 376 74 272 q 97 539 74 469 q 160 654 121 608 q 252 722 200 700 q 361 744 304 744 q 465 719 417 744 q 544 661 514 694 l 544 729 l 686 729 l 686 0 l 544 0 m 546 517 q 515 550 533 533 q 475 581 497 567 q 427 603 453 594 q 375 613 401 613 q 257 555 297 613 q 217 381 217 497 q 259 179 217 242 q 381 117 301 117 q 475 145 432 117 q 546 210 518 174 l 546 517 z "},"ª":{"ha":861,"x_min":256,"x_max":699,"o":"m 640 -153 q 501 -57 569 -112 q 378 69 432 -1 q 290 226 324 139 q 256 415 256 313 q 290 613 256 524 q 378 774 324 703 q 501 901 432 846 q 640 996 569 956 l 699 931 q 582 828 633 881 q 494 715 531 775 q 438 583 457 654 q 418 424 418 511 q 438 260 418 333 q 494 127 457 188 q 582 15 531 67 q 699 -87 633 -37 l 640 -153 z "},"º":{"ha":861,"x_min":163,"x_max":606,"o":"m 606 428 q 572 230 606 319 q 483 69 538 140 q 360 -58 429 -3 q 221 -153 292 -112 l 163 -87 q 278 15 226 -37 q 367 128 331 68 q 424 260 404 189 q 443 419 443 332 q 424 583 443 510 q 367 716 404 656 q 278 828 331 776 q 163 931 226 881 l 221 996 q 360 900 292 956 q 483 774 429 844 q 572 617 538 704 q 606 428 606 531 z "},"Ω":{"ha":569,"x_min":79,"x_max":490,"o":"m 482 688 q 449 675 468 668 l 354 704 l 354 0 l 215 0 l 215 704 l 122 675 q 88 688 100 668 q 90 718 79 699 l 285 993 l 478 717 q 482 688 490 699 z "},"æ":{"ha":1181,"x_min":71,"x_max":1103,"o":"m 1103 378 q 1101 341 1103 358 q 1099 313 1100 324 l 653 313 q 704 166 658 214 q 817 118 750 118 q 893 133 864 118 q 957 176 922 149 l 1044 82 q 997 40 1021 58 q 944 10 972 22 q 883 -9 917 -3 q 808 -15 850 -15 q 676 15 738 -15 q 575 108 615 46 q 471 18 535 51 q 326 -15 407 -15 q 237 -2 282 -15 q 155 40 192 11 q 94 117 118 69 q 71 231 71 164 q 93 335 71 290 q 155 410 115 381 q 248 453 194 439 q 364 468 301 468 q 448 460 413 468 q 513 439 483 453 l 513 490 q 483 580 513 549 q 386 611 453 611 q 287 600 332 611 q 200 565 242 589 l 143 676 q 256 726 196 708 q 390 744 315 744 q 531 715 483 744 q 603 643 578 686 q 689 717 640 689 q 813 744 738 744 q 940 715 886 744 q 1031 634 994 685 q 1085 517 1067 583 q 1103 378 1103 450 m 961 435 q 950 503 958 471 q 924 560 942 536 q 876 599 906 585 q 806 613 847 613 q 698 564 735 613 q 654 435 661 515 l 961 435 m 513 310 q 451 333 485 325 q 358 342 417 342 q 251 313 290 342 q 213 235 213 283 q 245 150 213 182 q 349 118 278 118 q 447 147 406 118 q 513 208 489 175 l 513 310 z "},"ø":{"ha":792,"x_min":71,"x_max":721,"o":"m 721 368 q 696 206 721 278 q 626 85 671 135 q 522 10 582 36 q 392 -15 463 -15 q 276 7 332 -15 l 238 -69 l 110 -69 l 179 71 q 100 195 129 121 q 71 364 71 269 q 96 524 71 453 q 165 644 121 594 q 267 719 208 693 q 396 744 326 744 q 507 725 453 744 l 543 799 l 671 799 l 604 665 q 690 540 658 617 q 721 368 721 464 m 578 364 q 568 465 578 424 q 540 536 558 506 l 333 124 q 397 113 367 113 q 474 132 440 113 q 530 186 507 151 q 565 266 553 221 q 578 364 578 311 m 449 608 q 390 617 421 617 q 260 549 306 617 q 214 368 214 481 q 222 274 214 314 q 246 203 231 233 l 449 608 z "},"¿":{"ha":793,"x_min":75,"x_max":746,"o":"m 539 883 q 508 809 539 840 q 435 778 478 778 q 361 809 392 778 q 331 883 331 840 q 361 957 331 926 q 435 988 392 988 q 508 957 478 988 q 539 883 539 926 m 746 128 q 601 26 686 68 q 407 -15 515 -15 q 272 1 333 -15 q 167 51 211 18 q 99 131 124 83 q 75 243 75 179 q 87 331 75 293 q 121 399 99 369 q 176 453 143 429 q 254 503 210 478 q 308 538 288 521 q 340 576 329 556 q 355 624 351 597 q 358 692 358 651 l 510 692 q 503 588 510 631 q 476 511 496 544 q 420 449 456 478 q 326 389 385 421 q 249 331 274 360 q 224 251 224 301 q 272 161 224 193 q 411 129 321 129 q 544 158 489 129 q 653 238 600 188 l 746 128 z "},"¡":{"ha":414,"x_min":103,"x_max":311,"o":"m 311 883 q 281 809 311 840 q 207 778 250 778 q 133 809 164 778 q 103 883 103 840 q 133 957 103 926 q 207 988 164 988 q 281 957 250 988 q 311 883 311 926 m 133 0 l 133 432 l 161 692 l 253 692 l 281 432 l 281 0 l 133 0 z "},"¬":{"ha":903,"x_min":63,"x_max":875,"o":"m 599 286 q 569 283 579 275 q 557 318 550 296 l 586 411 l 63 411 l 63 550 l 586 550 l 557 644 q 569 678 550 664 q 599 674 581 686 l 875 481 l 599 286 z "},"√":{"ha":857,"x_min":53,"x_max":807,"o":"m 431 0 l 279 0 l 53 472 l 218 472 l 278 336 q 298 290 286 317 q 321 238 310 264 q 341 188 332 211 q 354 153 350 165 q 366 190 358 167 q 383 241 374 214 q 401 294 392 268 q 417 342 410 321 l 647 972 l 807 972 l 431 0 z "},"ƒ":{"ha":861,"x_min":163,"x_max":783,"o":"m 758 854 q 706 866 739 861 q 633 871 674 871 q 547 848 579 871 q 504 774 515 825 l 493 718 l 703 718 l 678 600 l 469 600 l 340 0 l 196 0 l 325 600 l 163 600 l 188 718 l 349 718 l 361 775 q 451 939 385 890 q 631 988 518 988 q 720 982 681 988 q 783 969 760 976 l 758 854 z "},"≈":{"ha":861,"x_min":93,"x_max":768,"o":"m 678 140 l 431 392 l 183 140 l 93 231 l 344 478 l 93 725 l 183 815 l 431 564 l 678 815 l 768 725 l 517 478 l 768 231 l 678 140 z "},"∆":{"ha":903,"x_min":28,"x_max":840,"o":"m 317 411 l 346 318 q 333 283 353 296 q 303 286 322 275 l 28 481 l 304 674 q 333 678 322 686 q 346 644 353 664 l 317 550 l 840 550 l 840 411 l 317 411 z "},"«":{"ha":817,"x_min":42,"x_max":761,"o":"m 607 0 l 350 364 l 607 729 l 761 729 l 511 365 l 761 0 l 607 0 m 299 0 l 42 364 l 299 729 l 453 729 l 203 365 l 453 0 l 299 0 z "},"»":{"ha":817,"x_min":56,"x_max":775,"o":"m 518 0 l 364 0 l 614 364 l 364 729 l 518 729 l 775 365 l 518 0 m 210 0 l 56 0 l 306 364 l 56 729 l 210 729 l 467 365 l 210 0 z "},"…":{"ha":861,"x_min":319,"x_max":539,"o":"m 539 635 q 507 558 539 589 q 431 526 475 526 q 353 558 385 526 q 322 635 322 589 q 353 713 322 681 q 431 744 385 744 q 507 713 475 744 q 539 635 539 681 m 419 -165 l 319 -165 l 340 194 l 521 194 l 419 -165 z "}," ":{"ha":431,"x_min":0,"x_max":0,"o":""},"À":{"ha":989,"x_min":65,"x_max":924,"o":"m 768 0 l 686 231 l 297 231 l 217 0 l 65 0 l 415 972 l 569 972 l 924 0 l 768 0 m 564 585 q 544 643 556 611 q 523 707 533 675 q 503 766 513 739 q 490 808 494 793 q 478 766 486 793 q 460 708 469 739 q 440 643 450 676 q 419 583 429 610 l 342 361 l 642 361 l 564 585 m 463 1035 l 233 1257 l 428 1257 l 576 1035 l 463 1035 z "},"Ã":{"ha":989,"x_min":65,"x_max":924,"o":"m 768 0 l 686 231 l 297 231 l 217 0 l 65 0 l 415 972 l 569 972 l 924 0 l 768 0 m 564 585 q 544 643 556 611 q 523 707 533 675 q 503 766 513 739 q 490 808 494 793 q 478 766 486 793 q 460 708 469 739 q 440 643 450 676 q 419 583 429 610 l 342 361 l 642 361 l 564 585 m 742 1219 q 700 1078 742 1126 q 596 1031 658 1031 q 558 1034 576 1031 q 522 1044 540 1038 q 481 1063 503 1051 q 432 1092 458 1075 q 403 1106 417 1100 q 378 1111 389 1111 q 342 1094 354 1111 q 324 1035 329 1078 l 225 1035 q 267 1176 225 1128 q 371 1224 308 1224 q 445 1210 410 1224 q 535 1163 481 1196 q 564 1149 550 1154 q 589 1143 578 1143 q 625 1160 613 1143 q 643 1219 638 1176 l 742 1219 l 742 1219 z "},"Õ":{"ha":985,"x_min":81,"x_max":904,"o":"m 904 486 q 875 283 904 375 q 792 125 846 192 q 663 22 739 58 q 492 -15 586 -15 q 322 22 397 -15 q 192 125 246 58 q 110 283 139 192 q 81 486 81 375 q 110 688 81 596 q 192 847 139 781 q 322 951 246 914 q 492 988 397 988 q 663 951 586 988 q 792 847 739 914 q 875 688 846 781 q 904 486 904 596 m 756 486 q 688 746 756 650 q 492 842 621 842 q 297 746 364 842 q 229 486 229 650 q 297 226 229 322 q 492 131 364 131 q 688 226 621 131 q 756 486 756 322 m 738 1219 q 696 1078 738 1126 q 592 1031 654 1031 q 554 1034 572 1031 q 517 1044 536 1038 q 476 1063 499 1051 q 428 1092 454 1075 q 399 1106 413 1100 q 374 1111 385 1111 q 338 1094 350 1111 q 319 1035 325 1078 l 221 1035 q 263 1176 221 1128 q 367 1224 304 1224 q 441 1210 406 1224 q 531 1163 476 1196 q 560 1149 546 1154 q 585 1143 574 1143 q 621 1160 608 1143 q 639 1219 633 1176 l 738 1219 l 738 1219 z "},"Œ":{"ha":1471,"x_min":81,"x_max":1390,"o":"m 760 0 l 760 115 q 707 58 738 82 q 641 17 676 33 q 567 -7 606 1 q 492 -15 529 -15 q 322 22 397 -15 q 192 125 246 58 q 110 283 139 192 q 81 486 81 375 q 110 688 81 596 q 192 847 139 781 q 322 951 246 914 q 492 988 397 988 q 649 952 575 988 q 760 857 722 917 l 760 972 l 1369 972 l 1369 831 l 889 831 l 889 590 l 1168 590 l 1168 449 l 889 449 l 889 142 l 1390 142 l 1390 0 l 760 0 m 756 486 q 688 746 756 650 q 492 842 621 842 q 297 746 364 842 q 229 486 229 650 q 297 226 229 322 q 492 131 364 131 q 688 226 621 131 q 756 486 756 322 z "},"œ":{"ha":1272,"x_min":71,"x_max":1194,"o":"m 1194 375 q 1193 340 1194 356 q 1190 313 1192 324 l 711 313 q 733 224 717 261 q 774 164 750 188 q 828 129 799 140 q 892 118 858 118 q 976 133 939 118 q 1049 176 1014 149 l 1136 79 q 1028 8 1088 32 q 883 -15 968 -15 q 746 22 813 -15 q 643 124 679 58 q 536 22 603 58 q 392 -15 469 -15 q 264 12 322 -15 q 163 89 206 39 q 95 208 119 139 q 71 364 71 278 q 96 524 71 453 q 165 644 121 594 q 267 719 208 693 q 396 744 326 744 q 539 707 472 744 q 642 607 606 669 q 746 709 682 674 q 888 744 810 744 q 1023 715 965 744 q 1119 634 1081 685 q 1176 516 1157 583 q 1194 375 1194 449 m 1046 435 q 1033 503 1043 471 q 1002 560 1022 536 q 951 599 982 585 q 878 613 919 613 q 765 567 807 613 q 713 435 724 522 l 1046 435 m 576 364 q 527 542 576 476 q 390 608 478 608 q 262 542 308 608 q 215 368 215 476 q 265 184 215 247 q 397 121 315 121 q 471 140 438 121 q 528 192 504 160 q 564 269 551 225 q 576 364 576 314 z "},"–":{"ha":639,"x_min":76,"x_max":563,"o":"m 76 442 l 76 575 l 563 575 l 563 442 l 76 442 z "},"—":{"ha":861,"x_min":76,"x_max":785,"o":"m 76 442 l 76 575 l 785 575 l 785 442 l 76 442 z "},"“":{"ha":694,"x_min":76,"x_max":604,"o":"m 585 624 l 403 624 l 508 972 l 604 972 l 585 624 m 258 624 l 76 624 l 182 972 l 278 972 l 258 624 z "},"”":{"ha":694,"x_min":90,"x_max":618,"o":"m 513 624 l 417 624 l 436 972 l 618 972 l 513 624 m 186 624 l 90 624 l 110 972 l 292 972 l 186 624 z "},"‘":{"ha":368,"x_min":76,"x_max":278,"o":"m 258 624 l 76 624 l 182 972 l 278 972 l 258 624 z "},"’":{"ha":368,"x_min":90,"x_max":292,"o":"m 186 624 l 90 624 l 110 972 l 292 972 l 186 624 z "},"÷":{"ha":861,"x_min":89,"x_max":772,"o":"m 532 768 q 501 696 532 725 q 431 667 471 667 q 358 696 388 667 q 329 768 329 725 q 359 842 329 811 q 431 872 389 872 q 469 864 451 872 q 501 842 488 856 q 524 808 515 828 q 532 768 532 789 m 89 417 l 89 539 l 772 539 l 772 417 l 89 417 m 532 185 q 501 113 532 142 q 431 83 471 83 q 358 113 388 83 q 329 185 329 142 q 359 258 329 226 q 431 289 389 289 q 469 281 451 289 q 501 258 488 272 q 524 224 515 243 q 532 185 532 206 z "},"◊":{"ha":1056,"x_min":28,"x_max":1028,"o":"m 796 306 q 772 303 781 297 q 763 328 756 314 l 794 419 l 590 419 l 590 213 l 681 244 q 707 235 696 251 q 704 211 713 225 l 529 -21 l 354 211 q 350 235 346 226 q 363 245 357 242 q 378 244 368 249 l 468 213 l 468 419 l 261 419 l 293 328 q 283 303 300 314 q 260 306 275 297 l 28 481 l 260 656 q 283 660 276 665 q 294 647 290 653 q 293 632 297 642 l 261 542 l 468 542 l 468 760 l 378 728 q 363 727 368 724 q 350 738 357 731 q 354 761 344 744 l 529 993 l 704 761 q 707 738 713 746 q 681 728 696 721 l 590 760 l 590 542 l 794 542 l 763 632 q 762 647 758 642 q 772 660 765 653 q 796 656 779 665 l 1028 481 l 796 306 z "},"ÿ":{"ha":772,"x_min":46,"x_max":726,"o":"m 360 -257 l 208 -257 l 314 14 l 46 729 l 203 729 l 322 372 q 340 318 331 349 q 359 257 350 288 q 376 201 368 226 q 386 160 383 175 q 398 202 390 176 q 415 257 406 228 q 433 316 424 286 q 451 369 443 346 l 575 729 l 726 729 l 360 -257 m 614 907 q 586 842 614 869 q 521 814 558 814 q 454 842 482 814 q 426 907 426 869 q 454 974 426 946 q 521 1001 482 1001 q 586 974 558 1001 q 614 907 614 946 m 343 907 q 315 842 343 869 q 250 814 288 814 q 183 842 211 814 q 156 907 156 869 q 183 974 156 946 q 250 1001 211 1001 q 315 974 288 1001 q 343 907 343 946 z "},"Ÿ":{"ha":957,"x_min":57,"x_max":900,"o":"m 551 385 l 551 0 l 406 0 l 406 385 l 57 972 l 228 972 l 379 704 q 406 654 392 682 q 435 599 421 626 q 461 549 450 572 q 479 511 472 525 q 497 548 485 525 q 522 597 508 571 q 551 651 536 624 q 579 703 567 679 l 732 972 l 900 972 l 551 385 m 708 1114 q 681 1049 708 1076 q 615 1021 653 1021 q 549 1049 576 1021 q 521 1114 521 1076 q 549 1181 521 1153 q 615 1208 576 1208 q 681 1181 653 1208 q 708 1114 708 1153 m 438 1114 q 410 1049 438 1076 q 344 1021 382 1021 q 278 1049 306 1021 q 250 1114 250 1076 q 278 1181 250 1153 q 344 1208 306 1208 q 410 1181 382 1208 q 438 1114 438 1153 z "},"⁄":{"ha":657,"x_min":-78,"x_max":735,"o":"m 83 0 l -78 0 l 574 972 l 735 972 l 83 0 z "},"¤":{"ha":1056,"x_min":28,"x_max":1028,"o":"m 796 306 q 772 303 781 297 q 763 328 756 314 l 794 419 l 590 419 l 590 213 l 681 244 q 707 235 696 251 q 704 211 713 225 l 529 -21 l 354 211 q 350 235 346 226 q 363 245 357 242 q 378 244 368 249 l 468 213 l 468 419 l 261 419 l 293 328 q 283 303 300 314 q 260 306 275 297 l 28 481 l 260 656 q 283 660 276 665 q 294 647 290 653 q 293 632 297 642 l 261 542 l 468 542 l 468 760 l 378 728 q 363 727 368 724 q 350 738 357 731 q 354 761 344 744 l 529 993 l 704 761 q 707 738 713 746 q 681 728 696 721 l 590 760 l 590 542 l 794 542 l 763 632 q 762 647 758 642 q 772 660 765 653 q 796 656 779 665 l 1028 481 l 796 306 z "},"‹":{"ha":508,"x_min":42,"x_max":453,"o":"m 299 0 l 42 364 l 299 729 l 453 729 l 203 365 l 453 0 l 299 0 z "},"›":{"ha":508,"x_min":56,"x_max":467,"o":"m 210 0 l 56 0 l 306 364 l 56 729 l 210 729 l 467 365 l 210 0 z "},"ﬁ":{"ha":861,"x_min":60,"x_max":769,"o":"m 769 915 q 742 851 769 878 q 678 824 715 824 q 612 851 639 824 q 585 915 585 878 q 612 981 585 954 q 678 1008 639 1008 q 742 981 715 1008 q 769 915 769 954 m 606 0 l 606 729 l 749 729 l 749 0 l 606 0 m 447 869 q 364 883 400 883 q 313 868 328 883 q 297 813 297 853 l 297 729 l 432 729 l 432 596 l 297 596 l 297 0 l 154 0 l 154 596 l 60 596 l 60 729 l 154 729 l 154 825 q 169 910 154 875 q 208 967 183 944 q 267 999 233 989 q 339 1008 300 1008 q 395 1005 367 1008 q 447 994 424 1001 l 447 869 z "},"ﬂ":{"ha":861,"x_min":60,"x_max":749,"o":"m 606 0 l 606 938 l 749 1013 l 749 0 l 606 0 m 447 869 q 364 883 400 883 q 313 868 328 883 q 297 813 297 853 l 297 729 l 432 729 l 432 596 l 297 596 l 297 0 l 154 0 l 154 596 l 60 596 l 60 729 l 154 729 l 154 825 q 169 910 154 875 q 208 967 183 944 q 267 999 233 989 q 339 1008 300 1008 q 395 1005 367 1008 q 447 994 424 1001 l 447 869 z "},"‡":{"ha":825,"x_min":76,"x_max":749,"o":"m 483 171 l 483 -139 l 342 -139 l 342 171 l 76 171 l 76 306 l 342 306 l 342 528 l 76 528 l 76 663 l 342 663 l 342 972 l 483 972 l 483 663 l 749 663 l 749 528 l 483 528 l 483 306 l 749 306 l 749 171 l 483 171 z "},"·":{"ha":353,"x_min":67,"x_max":286,"o":"m 286 510 q 253 433 286 465 q 176 400 221 400 q 99 433 132 400 q 67 510 67 465 q 76 552 67 532 q 99 588 85 572 q 134 612 114 603 q 176 621 154 621 q 219 612 199 621 q 253 588 239 603 q 277 552 268 572 q 286 510 286 532 z "},"‚":{"ha":368,"x_min":90,"x_max":292,"o":"m 186 -156 l 90 -156 l 110 193 l 292 193 l 186 -156 z "},"„":{"ha":694,"x_min":90,"x_max":618,"o":"m 513 -156 l 417 -156 l 436 193 l 618 193 l 513 -156 m 186 -156 l 90 -156 l 110 193 l 292 193 l 186 -156 z "},"‰":{"ha":1906,"x_min":69,"x_max":1851,"o":"m 1851 288 q 1833 165 1851 221 q 1783 69 1815 110 q 1707 7 1751 29 q 1610 -15 1663 -15 q 1513 7 1557 -15 q 1438 69 1469 29 q 1390 163 1407 108 q 1372 285 1372 218 q 1390 408 1372 351 q 1438 504 1407 464 q 1514 567 1469 544 q 1613 589 1558 589 q 1712 567 1668 589 q 1787 504 1756 544 q 1835 409 1818 464 q 1851 288 1851 354 m 1290 288 q 1272 165 1290 221 q 1222 69 1254 110 q 1146 7 1190 29 q 1049 -15 1101 -15 q 952 7 996 -15 q 877 69 908 29 q 828 163 846 108 q 811 285 811 218 q 828 408 811 351 q 877 504 846 464 q 953 567 908 544 q 1051 589 997 589 q 1151 567 1107 589 q 1226 504 1194 544 q 1274 409 1257 464 q 1290 288 1290 354 m 451 0 l 311 0 l 907 972 l 1047 972 l 451 0 m 549 686 q 531 564 549 619 q 481 468 513 508 q 404 406 449 428 q 307 383 360 383 q 210 406 254 383 q 135 467 167 428 q 87 562 104 507 q 69 683 69 617 q 87 806 69 750 q 135 903 104 863 q 211 965 167 943 q 310 988 256 988 q 409 965 365 988 q 484 903 453 943 q 532 808 515 863 q 549 686 549 753 m 1726 285 q 1697 418 1726 368 q 1611 468 1667 468 q 1526 419 1556 468 q 1497 288 1497 371 q 1527 154 1497 204 q 1613 104 1557 104 q 1697 156 1668 104 q 1726 285 1726 208 m 1165 285 q 1135 418 1165 368 q 1050 468 1106 468 q 965 419 994 468 q 936 288 936 371 q 966 154 936 204 q 1051 104 996 104 q 1136 156 1107 104 q 1165 285 1165 208 m 424 683 q 394 817 424 767 q 308 867 364 867 q 224 818 253 867 q 194 686 194 769 q 224 553 194 603 q 310 503 254 503 q 394 555 365 503 q 424 683 424 607 z "},"Â":{"ha":989,"x_min":65,"x_max":924,"o":"m 768 0 l 686 231 l 297 231 l 217 0 l 65 0 l 415 972 l 569 972 l 924 0 l 768 0 m 564 585 q 544 643 556 611 q 523 707 533 675 q 503 766 513 739 q 490 808 494 793 q 478 766 486 793 q 460 708 469 739 q 440 643 450 676 q 419 583 429 610 l 342 361 l 642 361 l 564 585 m 622 1019 l 490 1142 l 358 1019 l 246 1019 l 408 1242 l 575 1242 l 738 1019 l 622 1019 z "},"Ê":{"ha":854,"x_min":126,"x_max":774,"o":"m 126 0 l 126 972 l 753 972 l 753 831 l 272 831 l 272 590 l 551 590 l 551 449 l 272 449 l 272 142 l 774 142 l 774 0 l 126 0 m 563 1035 l 431 1157 l 299 1035 l 186 1035 l 349 1257 l 515 1257 l 678 1035 l 563 1035 z "},"Á":{"ha":989,"x_min":65,"x_max":924,"o":"m 768 0 l 686 231 l 297 231 l 217 0 l 65 0 l 415 972 l 569 972 l 924 0 l 768 0 m 564 585 q 544 643 556 611 q 523 707 533 675 q 503 766 513 739 q 490 808 494 793 q 478 766 486 793 q 460 708 469 739 q 440 643 450 676 q 419 583 429 610 l 342 361 l 642 361 l 564 585 m 518 1035 l 404 1035 l 553 1257 l 747 1257 l 518 1035 z "},"Ë":{"ha":854,"x_min":126,"x_max":774,"o":"m 126 0 l 126 972 l 753 972 l 753 831 l 272 831 l 272 590 l 551 590 l 551 449 l 272 449 l 272 142 l 774 142 l 774 0 l 126 0 m 661 1128 q 633 1063 661 1090 q 568 1035 606 1035 q 501 1063 529 1035 q 474 1128 474 1090 q 501 1194 474 1167 q 568 1222 529 1222 q 633 1194 606 1222 q 661 1128 661 1167 m 390 1128 q 363 1063 390 1090 q 297 1035 335 1035 q 231 1063 258 1035 q 203 1128 203 1090 q 231 1194 203 1167 q 297 1222 258 1222 q 363 1194 335 1222 q 390 1128 390 1167 z "},"È":{"ha":854,"x_min":126,"x_max":774,"o":"m 126 0 l 126 972 l 753 972 l 753 831 l 272 831 l 272 590 l 551 590 l 551 449 l 272 449 l 272 142 l 774 142 l 774 0 l 126 0 m 406 1035 l 176 1257 l 371 1257 l 519 1035 l 406 1035 z "},"Í":{"ha":413,"x_min":133,"x_max":481,"o":"m 133 0 l 133 972 l 279 972 l 279 0 l 133 0 m 251 1035 l 138 1035 l 286 1257 l 481 1257 l 251 1035 z "},"Î":{"ha":413,"x_min":-37,"x_max":454,"o":"m 133 0 l 133 972 l 279 972 l 279 0 l 133 0 m 339 1025 l 207 1147 l 75 1025 l -37 1025 l 125 1247 l 292 1247 l 454 1025 l 339 1025 z "},"Ï":{"ha":413,"x_min":-21,"x_max":438,"o":"m 133 0 l 133 972 l 279 972 l 279 0 l 133 0 m 438 1128 q 410 1063 438 1090 q 344 1035 382 1035 q 278 1063 306 1035 q 250 1128 250 1090 q 278 1194 250 1167 q 344 1222 306 1222 q 410 1194 382 1222 q 438 1128 438 1167 m 167 1128 q 139 1063 167 1090 q 74 1035 111 1035 q 7 1063 35 1035 q -21 1128 -21 1090 q 7 1194 -21 1167 q 74 1222 35 1222 q 139 1194 111 1222 q 167 1128 167 1167 z "},"Ì":{"ha":413,"x_min":-62,"x_max":281,"o":"m 133 0 l 133 972 l 279 972 l 279 0 l 133 0 m 167 1035 l -62 1257 l 132 1257 l 281 1035 l 167 1035 z "},"Ó":{"ha":985,"x_min":81,"x_max":904,"o":"m 904 486 q 875 283 904 375 q 792 125 846 192 q 663 22 739 58 q 492 -15 586 -15 q 322 22 397 -15 q 192 125 246 58 q 110 283 139 192 q 81 486 81 375 q 110 688 81 596 q 192 847 139 781 q 322 951 246 914 q 492 988 397 988 q 663 951 586 988 q 792 847 739 914 q 875 688 846 781 q 904 486 904 596 m 756 486 q 688 746 756 650 q 492 842 621 842 q 297 746 364 842 q 229 486 229 650 q 297 226 229 322 q 492 131 364 131 q 688 226 621 131 q 756 486 756 322 m 515 1035 l 401 1035 l 550 1257 l 744 1257 l 515 1035 z "},"Ô":{"ha":985,"x_min":81,"x_max":904,"o":"m 904 486 q 875 283 904 375 q 792 125 846 192 q 663 22 739 58 q 492 -15 586 -15 q 322 22 397 -15 q 192 125 246 58 q 110 283 139 192 q 81 486 81 375 q 110 688 81 596 q 192 847 139 781 q 322 951 246 914 q 492 988 397 988 q 663 951 586 988 q 792 847 739 914 q 875 688 846 781 q 904 486 904 596 m 756 486 q 688 746 756 650 q 492 842 621 842 q 297 746 364 842 q 229 486 229 650 q 297 226 229 322 q 492 131 364 131 q 688 226 621 131 q 756 486 756 322 m 617 1028 l 485 1150 l 353 1028 l 240 1028 l 403 1250 l 569 1250 l 732 1028 l 617 1028 z "},"Ò":{"ha":985,"x_min":81,"x_max":904,"o":"m 904 486 q 875 283 904 375 q 792 125 846 192 q 663 22 739 58 q 492 -15 586 -15 q 322 22 397 -15 q 192 125 246 58 q 110 283 139 192 q 81 486 81 375 q 110 688 81 596 q 192 847 139 781 q 322 951 246 914 q 492 988 397 988 q 663 951 586 988 q 792 847 739 914 q 875 688 846 781 q 904 486 904 596 m 756 486 q 688 746 756 650 q 492 842 621 842 q 297 746 364 842 q 229 486 229 650 q 297 226 229 322 q 492 131 364 131 q 688 226 621 131 q 756 486 756 322 m 460 1035 l 231 1257 l 425 1257 l 574 1035 l 460 1035 z "},"Ú":{"ha":861,"x_min":322,"x_max":539,"o":"m 539 635 q 507 558 539 589 q 431 526 475 526 q 353 558 385 526 q 322 635 322 589 q 353 713 322 681 q 431 744 385 744 q 507 713 475 744 q 539 635 539 681 m 539 93 q 507 16 539 47 q 431 -15 475 -15 q 353 16 385 -15 q 322 93 322 47 q 353 171 322 139 q 431 203 385 203 q 507 171 475 203 q 539 93 539 139 z "},"Û":{"ha":978,"x_min":119,"x_max":858,"o":"m 858 406 q 763 92 858 200 q 485 -15 667 -15 q 212 96 304 -15 q 119 408 119 207 l 119 972 l 265 972 l 265 413 q 322 202 265 274 q 488 131 378 131 q 658 199 603 131 q 713 403 713 268 l 713 972 l 858 972 l 858 406 l 858 406 m 619 1035 l 488 1157 l 356 1035 l 243 1035 l 406 1257 l 572 1257 l 735 1035 l 619 1035 z "},"Ù":{"ha":978,"x_min":119,"x_max":858,"o":"m 858 406 q 763 92 858 200 q 485 -15 667 -15 q 212 96 304 -15 q 119 408 119 207 l 119 972 l 265 972 l 265 413 q 322 202 265 274 q 488 131 378 131 q 658 199 603 131 q 713 403 713 268 l 713 972 l 858 972 l 858 406 l 858 406 m 463 1014 l 233 1236 l 428 1236 l 576 1014 l 463 1014 z "},"ı":{"ha":368,"x_min":111,"x_max":254,"o":"m 111 0 l 111 729 l 254 729 l 254 0 l 111 0 z "},"ˆ":{"ha":694,"x_min":101,"x_max":593,"o":"m 478 826 l 346 949 l 214 826 l 101 826 l 264 1049 l 431 1049 l 593 826 l 478 826 z "},"˜":{"ha":694,"x_min":93,"x_max":610,"o":"m 610 1011 q 568 870 610 918 q 464 822 526 822 q 426 826 444 822 q 390 836 408 829 q 349 855 371 843 q 300 883 326 867 q 271 897 285 892 q 246 903 257 903 q 210 886 222 903 q 192 826 197 869 l 93 826 q 135 967 93 919 q 239 1015 176 1015 q 313 1001 278 1015 q 403 954 349 988 q 432 940 418 946 q 457 935 446 935 q 493 951 481 935 q 511 1011 506 968 l 610 1011 l 610 1011 z "},"¯":{"ha":694,"x_min":153,"x_max":542,"o":"m 153 847 l 153 972 l 542 972 l 542 847 l 153 847 z "},"˘":{"ha":694,"x_min":101,"x_max":593,"o":"m 593 1049 q 519 884 583 942 q 346 826 454 826 q 176 884 240 826 q 101 1049 111 942 l 204 1049 q 247 972 213 1000 q 349 944 282 944 q 448 972 411 944 q 493 1049 485 999 l 593 1049 l 593 1049 z "},"˙":{"ha":694,"x_min":253,"x_max":440,"o":"m 440 919 q 413 854 440 882 q 347 826 385 826 q 281 854 308 826 q 253 919 253 882 q 281 986 253 958 q 347 1014 308 1014 q 413 986 385 1014 q 440 919 440 958 z "},"˚":{"ha":694,"x_min":172,"x_max":522,"o":"m 522 1000 q 509 931 522 963 q 472 876 496 899 q 417 840 449 853 q 347 826 385 826 q 278 840 310 826 q 222 876 246 853 q 185 931 199 899 q 172 1000 172 963 q 185 1069 172 1038 q 222 1125 199 1101 q 278 1162 246 1149 q 347 1175 310 1175 q 417 1162 385 1175 q 472 1125 449 1149 q 509 1069 496 1101 q 522 1000 522 1038 m 432 1000 q 408 1062 432 1038 q 347 1086 383 1086 q 287 1062 311 1086 q 263 1000 263 1038 q 287 938 263 963 q 347 914 311 914 q 408 938 383 914 q 432 1000 432 963 z "},"¸":{"ha":694,"x_min":181,"x_max":521,"o":"m 521 -147 q 508 -203 521 -181 q 472 -241 494 -226 q 417 -262 449 -256 q 351 -268 386 -268 q 260 -255 301 -268 q 181 -218 218 -242 l 211 -172 q 270 -197 239 -187 q 333 -206 301 -206 q 401 -190 379 -206 q 422 -151 422 -175 q 410 -119 422 -131 q 378 -107 397 -107 q 346 -112 358 -107 q 322 -128 333 -118 l 272 -108 l 297 17 l 368 17 l 354 -62 q 382 -53 367 -57 q 421 -50 397 -50 q 456 -56 439 -50 q 488 -73 474 -61 q 512 -103 503 -85 q 521 -147 521 -121 z "},"˝":{"ha":694,"x_min":69,"x_max":697,"o":"m 468 826 l 354 826 l 503 1049 l 697 1049 l 468 826 m 183 826 l 69 826 l 218 1049 l 413 1049 l 183 826 z "},"˛":{"ha":694,"x_min":213,"x_max":522,"o":"m 522 -208 q 449 -250 490 -232 q 358 -268 407 -268 q 250 -237 288 -268 q 213 -149 213 -207 q 244 -66 213 -103 q 332 0 275 -29 l 401 0 q 338 -74 357 -40 q 319 -139 319 -107 q 335 -180 319 -164 q 379 -196 351 -196 q 433 -187 408 -196 q 490 -161 458 -179 l 522 -208 l 522 -208 z "},"ˇ":{"ha":694,"x_min":101,"x_max":593,"o":"m 431 826 l 264 826 l 101 1049 l 217 1049 l 349 926 l 481 1049 l 593 1049 l 431 826 z "},"Ð":{"ha":964,"x_min":56,"x_max":886,"o":"m 886 486 q 848 265 886 357 q 744 115 810 174 q 594 28 679 56 q 413 0 508 0 l 147 0 l 147 439 l 56 439 l 56 578 l 147 578 l 147 972 l 413 972 q 597 944 510 972 q 747 858 683 917 q 849 707 811 799 q 886 486 886 615 m 738 486 q 719 626 738 563 q 662 734 701 689 q 560 804 622 779 q 413 829 499 829 l 289 829 l 289 578 l 465 578 l 465 439 l 289 439 l 289 143 l 413 143 q 560 168 499 143 q 662 238 622 193 q 719 347 701 283 q 738 486 738 410 z "}}}
